<?xml version="1.0" encoding="UTF-8" standalone="no"?>
<svg
   width="64"
   height="64"
   id="svg11300"
   version="1.0"
   style="display:inline;enable-background:new"
   viewBox="0 0 64 64"
   sodipodi:docname="org.xfce.orage.svg"
   inkscape:version="1.1.1 (3bf5ae0d25, 2021-09-20)"
   inkscape:export-filename="/home/maug/Downloads/xfce4-taskmanager.svg.png"
   inkscape:export-xdpi="36"
   inkscape:export-ydpi="36"
   xmlns:inkscape="http://www.inkscape.org/namespaces/inkscape"
   xmlns:sodipodi="http://sodipodi.sourceforge.net/DTD/sodipodi-0.dtd"
   xmlns="http://www.w3.org/2000/svg"
   xmlns:svg="http://www.w3.org/2000/svg"
   xmlns:rdf="http://www.w3.org/1999/02/22-rdf-syntax-ns#"
   xmlns:cc="http://creativecommons.org/ns#"
   xmlns:dc="http://purl.org/dc/elements/1.1/">
  <sodipodi:namedview
     pagecolor="#ffffff"
     bordercolor="#666666"
     borderopacity="1"
     objecttolerance="10"
     gridtolerance="10"
     guidetolerance="10"
     inkscape:pageopacity="0"
     inkscape:pageshadow="2"
     inkscape:window-width="1385"
     inkscape:window-height="1026"
     id="namedview44"
     showgrid="false"
     inkscape:zoom="15.217653"
     inkscape:cx="21.521058"
     inkscape:cy="34.433694"
     inkscape:window-x="235"
     inkscape:window-y="0"
     inkscape:window-maximized="0"
     inkscape:current-layer="svg11300"
     inkscape:lockguides="false"
     showguides="true"
     inkscape:guide-bbox="true"
     inkscape:pagecheckerboard="0"
     inkscape:snap-center="true"
     inkscape:snap-object-midpoints="true"
     width="64px">
    <inkscape:grid
       type="xygrid"
       id="grid4761"
       empspacing="4" />
  </sodipodi:namedview>
  <title
     id="title4162">Adwaita Icon Template</title>
  <defs
     id="defs3">
    <linearGradient
       id="linearGradient1020"
       inkscape:swatch="gradient">
      <stop
         style="stop-color:#ffffff;stop-opacity:1;"
         offset="0"
         id="stop1016" />
      <stop
         style="stop-color:#ffffff;stop-opacity:0.09411765"
         offset="1"
         id="stop1018" />
    </linearGradient>
  </defs>
  <metadata
     id="metadata4">
    <rdf:RDF>
      <cc:Work
         rdf:about="">
        <dc:title>Adwaita Icon Template</dc:title>
      </cc:Work>
    </rdf:RDF>
  </metadata>
  <rect
     style="display:inline;opacity:1;fill:#e6461d;fill-opacity:1;stroke:none;stroke-width:0.25;stroke-linecap:butt;stroke-linejoin:miter;stroke-miterlimit:4;stroke-dasharray:none;stroke-dashoffset:0;stroke-opacity:1;marker:none;marker-start:none;marker-mid:none;marker-end:none;paint-order:normal;enable-background:new"
     id="rect905"
     width="52"
     height="50"
     x="6"
     y="8"
     rx="4"
     ry="4" />
  <rect
     style="display:inline;opacity:1;fill:#d2d8dc;fill-opacity:1;stroke:none;stroke-width:0.25;stroke-linecap:butt;stroke-linejoin:miter;stroke-miterlimit:4;stroke-dasharray:none;stroke-dashoffset:0;stroke-opacity:1;marker:none;marker-start:none;marker-mid:none;marker-end:none;paint-order:normal;enable-background:new"
     id="rect879"
     width="52"
     height="48"
     x="6"
     y="9"
     rx="4"
     ry="4" />
  <rect
     ry="4"
     rx="4"
     y="11"
     x="7"
     height="45"
     width="50"
     id="rect1711"
     style="display:inline;opacity:1;fill:#f1f3f5;fill-opacity:1;stroke:none;stroke-width:0.25;stroke-linecap:butt;stroke-linejoin:miter;stroke-miterlimit:4;stroke-dasharray:none;stroke-dashoffset:0;stroke-opacity:1;marker:none;marker-start:none;marker-mid:none;marker-end:none;paint-order:normal;enable-background:new" />
  <rect
     style="opacity:1;fill:#e6461d;fill-opacity:1;stroke-width:0.999995;stroke-linecap:round;stroke-linejoin:round"
     id="rect874"
     width="52"
     height="13"
     x="6"
     y="6"
     rx="4"
     ry="4" />
  <rect
     style="opacity:1;fill:#e6461d;fill-opacity:1;stroke-width:0.999997;stroke-linecap:round;stroke-linejoin:round"
     id="rect1106"
     width="52"
     height="6"
     x="6"
     y="13" />
  <rect
     style="opacity:1;fill:#c02700;fill-opacity:1;stroke-width:0.999995;stroke-linecap:round;stroke-linejoin:round"
     id="rect15096"
     width="52"
     height="1"
     x="6"
     y="19" />
  <rect
     style="opacity:1;fill:#bcc5ca;fill-opacity:1;stroke-width:1;stroke-linecap:round;stroke-linejoin:round"
     id="rect15906"
     width="6"
     height="6"
     x="25"
     y="24" />
  <rect
     style="opacity:1;fill:#bcc5ca;fill-opacity:1;stroke-width:1;stroke-linecap:round;stroke-linejoin:round"
     id="rect15992"
     width="6"
     height="6"
     x="18"
     y="24" />
  <rect
     style="opacity:1;fill:#bcc5ca;fill-opacity:1;stroke-width:1;stroke-linecap:round;stroke-linejoin:round"
     id="rect16370"
     width="6"
     height="6"
     x="32"
     y="24" />
  <rect
     style="opacity:1;fill:#bcc5ca;fill-opacity:1;stroke-width:1;stroke-linecap:round;stroke-linejoin:round"
     id="rect17370"
     width="6"
     height="6"
     x="39"
     y="24" />
  <rect
     style="opacity:1;fill:#d2d8dc;fill-opacity:1;stroke-width:1;stroke-linecap:round;stroke-linejoin:round"
     id="rect112097"
     width="6"
     height="6"
     x="46"
     y="24" />
  <rect
     style="opacity:1;fill:#bcc5ca;fill-opacity:1;stroke-width:1;stroke-linecap:round;stroke-linejoin:round"
     id="rect112193"
     width="6"
     height="6"
     x="25"
     y="31" />
  <rect
     style="opacity:1;fill:#bcc5ca;fill-opacity:1;stroke-width:1;stroke-linecap:round;stroke-linejoin:round"
     id="rect112197"
     width="6"
     height="6"
     x="18"
     y="31" />
  <rect
     style="opacity:1;fill:#bcc5ca;fill-opacity:1;stroke-width:1;stroke-linecap:round;stroke-linejoin:round"
     id="rect112199"
     width="6"
     height="6"
     x="32"
     y="31" />
  <rect
     style="opacity:1;fill:#bcc5ca;fill-opacity:1;stroke-width:1;stroke-linecap:round;stroke-linejoin:round"
     id="rect112201"
     width="6"
     height="6"
     x="39"
     y="31" />
  <rect
     style="opacity:1;fill:#d2d8dc;fill-opacity:1;stroke-width:1;stroke-linecap:round;stroke-linejoin:round"
     id="rect112205"
     width="6"
     height="6"
     x="46"
     y="31" />
  <rect
     style="opacity:1;fill:#bcc5ca;fill-opacity:1;stroke-width:1;stroke-linecap:round;stroke-linejoin:round"
     id="rect112287"
     width="6"
     height="6"
     x="25"
     y="38" />
  <rect
     style="opacity:1;fill:#bcc5ca;fill-opacity:1;stroke-width:1;stroke-linecap:round;stroke-linejoin:round"
     id="rect112291"
     width="6"
     height="6"
     x="18"
     y="38" />
  <rect
     style="opacity:1;fill:#bcc5ca;fill-opacity:1;stroke-width:1;stroke-linecap:round;stroke-linejoin:round"
     id="rect112293"
     width="6"
     height="6"
     x="32"
     y="38" />
  <rect
     style="opacity:1;fill:#bcc5ca;fill-opacity:1;stroke-width:1;stroke-linecap:round;stroke-linejoin:round"
     id="rect112295"
     width="6"
     height="6"
     x="39"
     y="38" />
  <rect
     style="opacity:1;fill:#d2d8dc;fill-opacity:1;stroke-width:1;stroke-linecap:round;stroke-linejoin:round"
     id="rect112299"
     width="6"
     height="6"
     x="46"
     y="38" />
  <rect
     style="opacity:1;fill:#bcc5ca;fill-opacity:1;stroke-width:1;stroke-linecap:round;stroke-linejoin:round"
     id="rect112395"
     width="6"
     height="6"
     x="25"
     y="45" />
  <rect
     style="opacity:1;fill:#bcc5ca;fill-opacity:1;stroke-width:1;stroke-linecap:round;stroke-linejoin:round"
     id="rect112399"
     width="6"
     height="6"
     x="18"
     y="45" />
  <rect
     style="opacity:1;fill:#bcc5ca;fill-opacity:1;stroke-width:1;stroke-linecap:round;stroke-linejoin:round"
     id="rect112401"
     width="6"
     height="6"
     x="32"
     y="45" />
  <rect
     style="opacity:1;fill:#bcc5ca;fill-opacity:1;stroke-width:1;stroke-linecap:round;stroke-linejoin:round"
     id="rect112403"
     width="6"
     height="6"
     x="39"
     y="45" />
  <rect
     style="opacity:1;fill:#d2d8dc;fill-opacity:1;stroke-width:1;stroke-linecap:round;stroke-linejoin:round"
     id="rect112407"
     width="6"
     height="6"
     x="46"
     y="45" />
  <rect
     style="opacity:1;fill:#d2d8dc;fill-opacity:1;stroke-width:1;stroke-linecap:round;stroke-linejoin:round"
     id="rect25256"
     width="6"
     height="6"
     x="11"
     y="24" />
  <rect
     style="opacity:1;fill:#d2d8dc;fill-opacity:1;stroke-width:1;stroke-linecap:round;stroke-linejoin:round"
     id="rect25258"
     width="6"
     height="6"
     x="11"
     y="31" />
  <rect
     style="opacity:1;fill:#d2d8dc;fill-opacity:1;stroke-width:1;stroke-linecap:round;stroke-linejoin:round"
     id="rect25260"
     width="6"
     height="6"
     x="11"
     y="38" />
  <rect
     style="opacity:1;fill:#d2d8dc;fill-opacity:1;stroke-width:1;stroke-linecap:round;stroke-linejoin:round"
     id="rect25262"
     width="6"
     height="6"
     x="11"
     y="45" />
  <g
     id="g895"
     style="display:inline;fill:#f1f3f5;fill-opacity:1;stroke:none;stroke-width:0.839763;enable-background:new"
     transform="matrix(0.22101845,0,0,0.22101845,8.618487,-60.611416)" />
  <rect
     style="fill:#d2d8dc;fill-opacity:1;stroke-width:0.499999;stroke-linecap:round;stroke-linejoin:round"
     id="rect1067"
     width="50"
     height="1"
     x="7"
     y="54" />
  <circle
     style="display:inline;fill:#c02700;fill-opacity:1;stroke-width:1;stroke-linecap:round;stroke-linejoin:round;enable-background:new"
     id="circle191262"
     cx="13.5"
     cy="13.25"
     r="2.75" />
  <circle
     style="display:inline;fill:#f1f3f5;fill-opacity:1;stroke-width:1;stroke-linecap:round;stroke-linejoin:round;enable-background:new"
     id="path2530"
     cx="13.5"
     cy="12.75"
     r="2.75" />
  <g
     id="g901"
     transform="matrix(0.11050922,0,0,0.11050922,3.4216225,-30.476403)"
     style="display:inline;fill:#f1f3f5;fill-opacity:1;stroke:none;stroke-width:1.67953;enable-background:new">
    <path
       id="path899"
       style="color:#000000;fill:#c02700;fill-opacity:1;fill-rule:evenodd;stroke-width:1.41041;-inkscape-stroke:none"
       d="m 152.89825,352.71183 -0.10524,0.0109 -0.10524,0.0528 c -0.12953,0.0709 -0.27228,0.21523 -0.34725,0.38938 -0.075,0.17415 -0.0684,0.35346 -0.0421,0.48405 0.0528,0.26124 0.15591,0.39128 0.2736,0.53669 0.23541,0.29083 0.56904,0.58462 1.03126,0.93655 0.92441,0.70386 2.35795,1.62008 4.30395,2.72548 3.89199,2.21082 9.80919,5.14267 17.51047,8.31327 7.59603,3.12706 16.71886,8.69303 23.69807,13.78529 3.4896,2.54612 6.45233,4.97739 8.40797,6.90316 0.97782,0.96289 1.70118,1.80632 2.10463,2.43085 0.2017,0.31228 0.31811,0.5733 0.35779,0.72609 0.0398,0.1528 0.007,0.14456 0.0317,0.10524 l 0.0208,-0.0208 c -5.06204,7.12978 -8.0568,15.7792 -6.0087,30.29606 v 0.0109 c 0.0394,0.27238 -0.23423,0.91341 -0.87342,1.69423 -0.63922,0.78082 -1.56057,1.67631 -2.49398,2.63078 -0.9334,0.95447 -1.8799,1.96082 -2.57817,3.02013 -0.69826,1.05933 -1.16823,2.21438 -0.98917,3.4095 v 0.0109 c 0.0878,0.53339 0.4496,1.00761 0.90499,1.21016 0.45538,0.20256 0.93376,0.20351 1.43114,0.13677 0.99477,-0.13347 2.11985,-0.57584 3.26217,-1.0523 1.14231,-0.47645 2.28398,-0.99481 3.15694,-1.31539 0.39775,-0.14605 0.71834,-0.23346 0.94708,-0.2736 -0.002,0.15139 0.019,0.22071 -0.0208,0.46303 -0.0729,0.4406 -0.21315,0.99661 -0.38938,1.62057 -0.35237,1.2479 -0.85837,2.75952 -1.32592,4.24081 -0.46756,1.4813 -0.89596,2.93078 -1.08389,4.11454 -0.094,0.59188 -0.13044,1.11698 -0.0528,1.59952 0.0778,0.48253 0.34341,1.01581 0.87342,1.21016 l 0.0208,0.0109 0.0208,0.0109 c 0.3673,0.10918 0.60457,0.009 0.84185,-0.0841 0.23726,-0.0932 0.47741,-0.23387 0.74714,-0.39988 0.53941,-0.33196 1.18414,-0.80313 1.91521,-1.37853 1.46214,-1.15081 3.25955,-2.70107 5.03006,-4.26186 1.77048,-1.56079 3.50982,-3.12826 4.85115,-4.28291 0.67066,-0.57733 1.24221,-1.05585 1.65213,-1.36801 0.19645,-0.14962 0.35327,-0.25527 0.45247,-0.31567 10.80049,3.21859 23.10231,3.61542 32.81109,3.17798 4.88864,-0.22025 9.11915,-0.65324 12.16473,-1.0418 1.52279,-0.19428 2.74328,-0.37331 3.60943,-0.51561 0.43309,-0.0712 0.78405,-0.13184 1.03127,-0.17885 0.098,-0.019 0.16238,-0.0385 0.23152,-0.0528 v 0.0109 c 0.13958,0.0612 0.35748,0.14949 0.63139,0.2736 0.54784,0.24821 1.33841,0.60905 2.29403,1.04178 1.91129,0.86546 4.4813,2.02421 7.11364,3.14641 2.63234,1.12224 5.31884,2.21171 7.48194,2.95701 1.08154,0.37264 2.03281,0.65852 2.79915,0.8208 0.38318,0.0811 0.72378,0.12768 1.03126,0.13677 0.30749,0.009 0.59491,0.0104 0.91551,-0.19994 l 0.0737,-0.0421 0.0528,-0.0632 c 1.26582,-1.37074 1.32,-3.06222 0.71558,-4.5565 -0.60442,-1.49429 -1.772,-2.90231 -2.97805,-4.2303 -1.20602,-1.32798 -2.45907,-2.57661 -3.24112,-3.59891 -0.39101,-0.51114 -0.66103,-0.9656 -0.75766,-1.28381 -0.0853,-0.28088 -0.0458,-0.38445 0.0421,-0.51562 0.0773,-0.009 0.19143,-0.0163 0.36829,0 0.42033,0.0385 1.04888,0.16152 1.78894,0.3578 1.48011,0.39254 3.40957,1.04703 5.34575,1.6837 1.93617,0.63668 3.87309,1.26011 5.40888,1.62056 0.7679,0.18021 1.43499,0.29862 1.99939,0.30518 0.2822,0.003 0.53615,-0.0122 0.79976,-0.10524 0.26364,-0.0928 0.56632,-0.30622 0.69452,-0.6314 l 0.0109,-0.0208 v -0.0208 c 0.36214,-1.09292 -0.0385,-2.25933 -0.68399,-3.43054 -0.64571,-1.17121 -1.58504,-2.37649 -2.5887,-3.54629 -1.00365,-1.16982 -2.07515,-2.29447 -2.95699,-3.24113 -0.87876,-0.94334 -1.58376,-1.75765 -1.79946,-2.11514 -0.4462,-0.79208 -0.72508,-1.85062 -0.59981,-2.87282 0.12551,-1.02433 0.61584,-2.0128 1.78892,-2.83072 0.23093,-0.16093 0.95709,-0.54059 1.93626,-1.01021 0.97918,-0.46961 2.24236,-1.061 3.68309,-1.73631 2.88146,-1.35062 6.47209,-3.06407 9.95487,-4.97744 3.48279,-1.91339 6.85022,-4.01357 9.32349,-6.1876 2.47191,-2.17285 4.15418,-4.46492 3.81989,-6.84003 -0.52041,-3.86081 -3.07204,-6.80004 -6.47172,-9.00779 -3.39966,-2.20774 -7.67195,-3.74182 -11.89113,-4.85116 -4.21916,-1.10933 -8.38356,-1.78616 -11.51229,-2.27299 -1.56436,-0.24342 -2.87473,-0.44341 -3.78832,-0.61034 -0.45678,-0.0835 -0.80995,-0.16687 -1.03126,-0.23152 h -0.0109 c -0.002,-0.16148 -0.002,-0.36318 0,-0.63139 0.004,-0.59602 0.0131,-1.41402 0,-2.37822 -0.0253,-1.92842 -0.13266,-4.42037 -0.53668,-6.79794 -0.40404,-2.37757 -1.07639,-4.6558 -2.38876,-6.19812 -1.31094,-1.54064 -3.39418,-2.1879 -5.92451,-1.18911 -1.67213,0.62549 -2.61279,2.07232 -3.00961,3.7357 -0.39744,1.66576 -0.32088,3.59446 -0.0632,5.48255 0.25777,1.8881 0.70655,3.73341 1.11545,5.21947 0.40888,1.48605 0.78433,2.66579 0.85237,2.96752 0.0425,0.18799 0.0403,0.13112 -0.0317,0.18944 -0.072,0.0583 -0.30513,0.15302 -0.59982,0.1789 -0.29473,0.0258 -0.63603,-0.007 -0.90499,-0.0737 -0.26898,-0.0668 -0.45791,-0.21346 -0.42096,-0.16835 -0.0566,-0.0691 -0.27427,-0.43585 -0.5051,-0.92604 -0.23084,-0.49019 -0.49639,-1.11648 -0.81028,-1.83102 -0.62779,-1.42908 -1.40485,-3.19153 -2.30457,-4.84064 -0.89971,-1.64911 -1.91355,-3.19299 -3.09379,-4.23029 -0.59014,-0.51863 -1.23654,-0.9096 -1.94679,-1.08388 -0.71024,-0.17424 -1.48453,-0.10995 -2.20985,0.25251 l -0.0109,0.0109 -0.0109,0.0109 c -1.84272,1.01599 -2.83721,2.63389 -3.24112,4.37762 -0.40395,1.74372 -0.26219,3.61338 0.0317,5.35626 0.29373,1.7429 0.74789,3.3621 1.0418,4.53547 0.14691,0.58668 0.24939,1.07051 0.27359,1.34695 0.009,0.0917 0.002,0.10886 0,0.13683 -1.31513,0.82149 -1.98182,2.11558 -2.49397,3.45159 -0.53658,1.39967 -0.97864,2.86531 -1.89417,4.13559 h -0.0108 c -0.27709,0.39707 -0.86251,0.76155 -1.77841,0.99968 -0.91591,0.23813 -2.12529,0.35468 -3.53578,0.3578 -2.82097,0.006 -6.4291,-0.43408 -10.18637,-1.03127 -7.51455,-1.19432 -15.58868,-3.04412 -19.70981,-3.29373 -3.10013,-0.18302 -6.03658,0.97922 -8.26064,2.07306 -1.11204,0.54691 -2.05095,1.08616 -2.71497,1.43114 -0.30825,0.16012 -0.54586,0.26143 -0.69452,0.31568 -7.18922,-7.1638 -21.73014,-19.38274 -37.86219,-23.50866 -4.42291,-1.20028 -10.006,-3.56433 -14.53244,-5.61935 -2.26321,-1.02751 -4.26096,-1.98348 -5.73509,-2.67287 -0.73706,-0.34473 -1.34133,-0.6154 -1.78894,-0.81028 -0.22382,-0.0974 -0.40458,-0.17555 -0.55772,-0.23152 -0.0766,-0.0281 -0.14578,-0.054 -0.22102,-0.0737 -0.0752,-0.0199 -0.12108,-0.0625 -0.3683,-0.0208 z"
       sodipodi:nodetypes="cccscssscssscccccsssccsssscccsscccccssssscssscccsssssccccssssccsssccccccsscsssssscssssccccsscscscscccssssscccscsccsccscccssccssccccc" />
  </g>
  <g
     id="g7021"
     style="display:inline;fill:#c02700;fill-opacity:1;stroke:none;stroke-width:1.24003;enable-background:new"
     transform="matrix(0.1496767,0,0,0.1496767,-7.733496,-44.374899)">
    <path
       id="path7019"
       style="color:#000000;fill:#c02700;fill-opacity:1;fill-rule:evenodd;stroke-width:0.164441pt;-inkscape-stroke:none"
       d="m 79.529297,18.498047 c -0.02523,-0.001 -0.04972,0.0041 -0.06836,0.01172 -0.03728,0.01516 -0.06734,0.03721 -0.101563,0.06641 -0.06844,0.05838 -0.144957,0.144781 -0.230469,0.251953 -0.171024,0.214346 -0.374789,0.513022 -0.560547,0.826172 -0.185757,0.313152 -0.354127,0.638724 -0.457031,0.908203 -0.05145,0.134737 -0.08629,0.255804 -0.09766,0.359375 -0.01134,0.103421 -0.0024,0.206252 0.08008,0.267578 0.04552,0.03372 0.108698,0.02421 0.144531,0.0059 0.03594,-0.01841 0.06476,-0.04419 0.0957,-0.07617 0.06188,-0.06396 0.12968,-0.155778 0.205078,-0.269532 0.150797,-0.227512 0.327588,-0.541624 0.496094,-0.863281 0.168509,-0.321657 0.327242,-0.6507 0.439453,-0.90625 0.0561,-0.127775 0.100402,-0.235186 0.128907,-0.318359 0.01426,-0.04159 0.02522,-0.07641 0.03125,-0.107422 0.003,-0.01552 0.0062,-0.03103 0.0059,-0.04883 -4.42e-4,-0.01779 5.04e-4,-0.04471 -0.03125,-0.07617 l -0.0039,-0.002 -0.002,-0.0039 c -0.02205,-0.01824 -0.04899,-0.02439 -0.07422,-0.02539 z"
       transform="matrix(4.5245092,0,0,4.5245092,-38.994423,274.23691)" />
  </g>
  <g
     id="g7025"
     transform="matrix(0.1496767,0,0,0.1496767,-8.935715,-44.606094)"
     style="display:inline;fill:#c02700;fill-opacity:1;stroke:none;stroke-width:1.24003;enable-background:new">
    <path
       id="path7023"
       style="color:#000000;fill:#c02700;fill-opacity:1;fill-rule:evenodd;stroke-width:0.164441pt;-inkscape-stroke:none"
       d="m 77.755859,18.160156 c -0.01094,0.0012 -0.02133,0.0043 -0.0293,0.0078 -0.03186,0.01375 -0.04171,0.028 -0.05078,0.04102 -0.01815,0.02604 -0.02833,0.05219 -0.04102,0.08594 -0.02537,0.06749 -0.05238,0.163529 -0.08203,0.28125 -0.05931,0.235446 -0.125504,0.558247 -0.18164,0.888672 -0.05614,0.330425 -0.102419,0.667417 -0.119141,0.933594 -0.0084,0.133088 -0.0095,0.248364 0,0.339843 0.0047,0.04574 0.01206,0.08448 0.02539,0.121094 0.01258,0.03451 0.03456,0.07038 0.07617,0.09375 0.01949,0.01202 0.04293,0.02341 0.06836,0.02148 0.02906,-0.0022 0.0519,-0.01627 0.06836,-0.0293 0.03292,-0.02607 0.05096,-0.05517 0.06836,-0.08984 0.0348,-0.06934 0.06324,-0.162049 0.09375,-0.279297 0.06101,-0.234496 0.119869,-0.558611 0.166015,-0.890625 0.04615,-0.332014 0.08124,-0.672051 0.0918,-0.941406 0.0053,-0.134676 0.0044,-0.249988 -0.0039,-0.341797 -0.0042,-0.0459 -0.01143,-0.0857 -0.02148,-0.121094 -0.0093,-0.03285 -0.02189,-0.06484 -0.05664,-0.09375 -0.01014,-0.0095 -0.02119,-0.02071 -0.03906,-0.02539 -0.0113,-0.003 -0.02226,-0.0031 -0.0332,-0.002 z"
       transform="matrix(4.5245092,0,0,4.5245092,-30.962325,275.78153)" />
  </g>
  <path
     id="path7721"
     style="color:#000000;display:inline;fill:#f1f3f5;fill-opacity:1;fill-rule:evenodd;stroke:none;stroke-width:0.18521pt;-inkscape-stroke:none;enable-background:new"
     d="m 20.31829,7.5015434 -0.01163,0.0012 -0.01163,0.0058 c -0.01431,0.0078 -0.03009,0.02379 -0.03838,0.04303 -0.0083,0.01924 -0.0076,0.03906 -0.0046,0.05349 0.0058,0.02887 0.01723,0.04324 0.03024,0.05931 0.02601,0.03214 0.06288,0.06461 0.113964,0.103497 0.102156,0.07778 0.260576,0.179034 0.475627,0.301192 0.4301,0.244315 1.084005,0.568312 1.935068,0.918692 0.839431,0.345569 1.847589,0.96066 2.618855,1.5234016 0.385634,0.28137 0.713042,0.550048 0.929158,0.762863 0.108059,0.106408 0.187996,0.199615 0.232581,0.268631 0.02229,0.03451 0.03515,0.06335 0.03954,0.08024 0.0044,0.01689 7.5e-4,0.01598 0.0035,0.01163 l 0.0023,-0.0023 c -0.559403,0.787907 -0.89035,1.743747 -0.664016,3.347994 v 0.0012 c 0.0043,0.0301 -0.02589,0.10094 -0.09652,0.187228 -0.07064,0.08629 -0.172457,0.185248 -0.275607,0.290726 -0.103149,0.105477 -0.207747,0.216689 -0.284912,0.333753 -0.07716,0.117064 -0.1291,0.244708 -0.109313,0.37678 v 0.0012 c 0.0097,0.05894 0.04968,0.11135 0.10001,0.133734 0.05032,0.02238 0.103189,0.02249 0.158155,0.01512 0.109931,-0.01475 0.234263,-0.06364 0.360499,-0.116289 0.126237,-0.05265 0.252401,-0.109936 0.348871,-0.145363 0.04395,-0.01614 0.07938,-0.0258 0.104661,-0.03023 -1.85e-4,0.01673 0.0021,0.02439 -0.0023,0.05117 -0.0081,0.04869 -0.02356,0.110134 -0.04303,0.179088 -0.03894,0.137905 -0.09486,0.304952 -0.146526,0.468649 -0.05167,0.163697 -0.09901,0.323878 -0.119779,0.454694 -0.01039,0.06541 -0.01441,0.123437 -0.0058,0.176762 0.0086,0.05332 0.03795,0.112256 0.09652,0.133733 l 0.0023,0.0012 0.0023,0.0012 c 0.04059,0.01206 0.06681,9.5e-4 0.09303,-0.0093 0.02622,-0.0103 0.05276,-0.02585 0.08257,-0.04419 0.05961,-0.03668 0.130858,-0.08875 0.211648,-0.15234 0.16158,-0.127176 0.360211,-0.298494 0.555868,-0.470975 0.195654,-0.172481 0.387868,-0.345702 0.536097,-0.473301 0.07411,-0.0638 0.137276,-0.116681 0.182575,-0.151178 0.02171,-0.01654 0.03904,-0.02821 0.05,-0.03488 1.193554,0.355685 2.553018,0.399538 3.625929,0.351197 0.540239,-0.02434 1.007749,-0.07219 1.344314,-0.115128 0.168282,-0.02147 0.303157,-0.04126 0.398875,-0.05698 0.04786,-0.0079 0.08665,-0.01457 0.113965,-0.01976 0.01083,-0.0021 0.01795,-0.0042 0.02558,-0.0058 0,0 0,0.0012 0,0.0012 0.01543,0.0068 0.03951,0.01652 0.06977,0.03023 0.06054,0.02743 0.147907,0.06731 0.253512,0.115127 0.211215,0.09564 0.495225,0.223693 0.786122,0.347707 0.290898,0.124017 0.587782,0.244414 0.826824,0.326777 0.119521,0.04118 0.224645,0.07277 0.309332,0.0907 0.04234,0.009 0.07998,0.01411 0.113964,0.01512 0.03398,0.001 0.06574,0.0011 0.101172,-0.0221 l 0.0081,-0.0047 0.0058,-0.007 c 0.139885,-0.15148 0.145872,-0.338404 0.07908,-0.503535 -0.06679,-0.165134 -0.195822,-0.320732 -0.329101,-0.467488 -0.133277,-0.146754 -0.27175,-0.284739 -0.358175,-0.397712 -0.04321,-0.05649 -0.07305,-0.106708 -0.08373,-0.141873 -0.0094,-0.03104 -0.0051,-0.04248 0.0046,-0.05698 0.0085,-9.5e-4 0.02116,-0.0018 0.0407,0 0.04645,0.0043 0.115911,0.01785 0.197694,0.03954 0.163566,0.04338 0.376789,0.115707 0.590755,0.186064 0.213965,0.07036 0.428012,0.139254 0.597731,0.179087 0.08486,0.01991 0.15858,0.033 0.220951,0.03372 0.03119,3.71e-4 0.05925,-0.0013 0.08838,-0.01163 0.02913,-0.01025 0.06258,-0.03384 0.07675,-0.06978 l 0.0012,-0.0023 v -0.0023 c 0.04002,-0.120777 -0.0042,-0.249677 -0.07559,-0.379106 -0.07136,-0.12943 -0.175161,-0.262623 -0.286074,-0.391898 -0.110913,-0.129275 -0.229324,-0.25356 -0.326775,-0.358174 -0.09711,-0.104248 -0.17502,-0.194237 -0.198857,-0.233743 -0.04931,-0.08753 -0.08013,-0.204511 -0.06629,-0.317473 0.01387,-0.113197 0.06806,-0.222432 0.197693,-0.31282 0.02552,-0.01778 0.105767,-0.05974 0.213974,-0.111638 0.108209,-0.0519 0.247802,-0.117251 0.407016,-0.191879 0.318427,-0.149256 0.715225,-0.338608 1.100105,-0.550053 0.384881,-0.211446 0.757012,-0.443536 1.030332,-0.683786 0.273169,-0.24012 0.459075,-0.493415 0.422133,-0.755887 -0.05751,-0.426654 -0.339489,-0.751466 -0.715185,-0.995444 -0.375694,-0.243975 -0.847821,-0.413505 -1.314079,-0.536097 -0.466257,-0.122592 -0.926462,-0.1973866 -1.272215,-0.2511866 -0.172876,-0.0269 -0.317684,-0.049 -0.418644,-0.06745 -0.05048,-0.0092 -0.08951,-0.01844 -0.113964,-0.02558 0,0 -0.0012,0 -0.0012,0 -1.86e-4,-0.01785 -1.86e-4,-0.04014 0,-0.06977 4.64e-4,-0.06587 0.0014,-0.156262 0,-0.262816 -0.0028,-0.213108 -0.01466,-0.488492 -0.05931,-0.751235 -0.04465,-0.262743 -0.118951,-0.514509 -0.26398,-0.684949 -0.144871,-0.170256 -0.375089,-0.241783 -0.654713,-0.131408 -0.184786,0.06912 -0.288738,0.22901 -0.33259,0.41283 -0.04392,0.184081 -0.03546,0.397221 -0.007,0.605872 0.02848,0.208652 0.07808,0.412576 0.123267,0.5768 0.04518,0.164222 0.08668,0.294594 0.09419,0.327938 0.0047,0.02078 0.0044,0.01449 -0.0035,0.02094 -0.008,0.0064 -0.03372,0.01691 -0.06629,0.01977 -0.03257,0.0029 -0.07029,-7.5e-4 -0.100009,-0.0081 -0.02972,-0.0074 -0.0506,-0.02359 -0.04652,-0.0186 -0.0063,-0.0076 -0.03031,-0.04817 -0.05582,-0.102335 -0.02551,-0.05417 -0.05485,-0.123382 -0.08954,-0.202345 -0.06938,-0.157927 -0.155248,-0.352694 -0.254675,-0.534936 -0.09943,-0.182241 -0.211465,-0.352854 -0.341893,-0.467486 -0.06522,-0.05731 -0.136649,-0.100519 -0.215138,-0.119779 -0.07849,-0.01925 -0.164054,-0.01215 -0.244209,0.02791 l -0.0012,0.0012 -0.0012,0.0012 c -0.203638,0.112276 -0.313538,0.29107 -0.358174,0.483768 -0.04464,0.192697 -0.02898,0.399311 0.0035,0.591916 0.03246,0.192606 0.08265,0.371543 0.115128,0.5012106 0.01624,0.06483 0.02756,0.118301 0.03024,0.148851 9.5e-4,0.01014 1.86e-4,0.01203 0,0.01512 -0.145334,0.09078 -0.21901,0.233792 -0.275607,0.381433 -0.0593,0.154677 -0.108149,0.316643 -0.209323,0.457021 h -0.0012 c -0.03062,0.04388 -0.09531,0.08416 -0.19653,0.110474 -0.101216,0.02632 -0.234864,0.0392 -0.390736,0.03954 -0.311744,6.5e-4 -0.710475,-0.04797 -1.125688,-0.113965 -0.830427,-0.131983 -1.722693,-0.336403 -2.178116,-0.363987 -0.342593,-0.02022 -0.667098,0.108212 -0.912877,0.229092 -0.12289,0.06044 -0.226649,0.12003 -0.300029,0.158154 -0.03407,0.01769 -0.06032,0.02889 -0.07675,0.03489 -0.794475,-0.791665 -2.401381,-2.1419706 -4.184122,-2.5979226 -0.488772,-0.132642 -1.105755,-0.393891 -1.605968,-0.62099 -0.250106,-0.11355 -0.470875,-0.219193 -0.633781,-0.295377 -0.08145,-0.0381 -0.148228,-0.06801 -0.197693,-0.08954 -0.02473,-0.01077 -0.04471,-0.0194 -0.06163,-0.02559 -0.0085,-0.0031 -0.01611,-0.006 -0.02443,-0.0081 -0.0083,-0.0022 -0.01338,-0.0069 -0.0407,-0.0023 z" />
  <g
     id="path13-0"
     style="display:inline;fill:#f1f3f5;fill-opacity:1;stroke:none;stroke-width:1.21644;enable-background:new"
     transform="matrix(0.15257906,0,0,0.15257906,-8.749567,-45.880403)">
    <path
       id="path7709"
       style="color:#000000;fill:#f1f3f5;fill-opacity:1;fill-rule:evenodd;stroke-width:0.161313pt;-inkscape-stroke:none"
       d="m 79.529297,18.498047 c -0.02523,-0.001 -0.04972,0.0041 -0.06836,0.01172 -0.03728,0.01516 -0.06734,0.03721 -0.101563,0.06641 -0.06844,0.05838 -0.144957,0.144781 -0.230469,0.251953 -0.171024,0.214346 -0.374789,0.513022 -0.560547,0.826172 -0.185757,0.313152 -0.354127,0.638724 -0.457031,0.908203 -0.05145,0.134737 -0.08629,0.255804 -0.09766,0.359375 -0.01134,0.103421 -0.0024,0.206252 0.08008,0.267578 0.04552,0.03372 0.108698,0.02421 0.144531,0.0059 0.03594,-0.01841 0.06476,-0.04419 0.0957,-0.07617 0.06188,-0.06396 0.12968,-0.155778 0.205078,-0.269532 0.150797,-0.227512 0.327588,-0.541624 0.496094,-0.863281 0.168509,-0.321657 0.327242,-0.6507 0.439453,-0.90625 0.0561,-0.127775 0.100402,-0.235186 0.128907,-0.318359 0.01426,-0.04159 0.02522,-0.07641 0.03125,-0.107422 0.003,-0.01552 0.0062,-0.03103 0.0059,-0.04883 -4.42e-4,-0.01779 5.04e-4,-0.04471 -0.03125,-0.07617 l -0.0039,-0.002 -0.002,-0.0039 c -0.02205,-0.01824 -0.04899,-0.02439 -0.07422,-0.02539 z"
       transform="matrix(4.5245092,0,0,4.5245092,-38.994423,274.23691)" />
  </g>
  <g
     id="path18-2"
     transform="matrix(0.15257906,0,0,0.15257906,-9.975097,-46.11608)"
     style="display:inline;fill:#f1f3f5;fill-opacity:1;stroke:none;stroke-width:1.21644;enable-background:new">
    <path
       id="path7715"
       style="color:#000000;fill:#f1f3f5;fill-opacity:1;fill-rule:evenodd;stroke-width:0.161313pt;-inkscape-stroke:none"
       d="m 77.755859,18.160156 c -0.01094,0.0012 -0.02133,0.0043 -0.0293,0.0078 -0.03186,0.01375 -0.04171,0.028 -0.05078,0.04102 -0.01815,0.02604 -0.02833,0.05219 -0.04102,0.08594 -0.02537,0.06749 -0.05238,0.163529 -0.08203,0.28125 -0.05931,0.235446 -0.125504,0.558247 -0.18164,0.888672 -0.05614,0.330425 -0.102419,0.667417 -0.119141,0.933594 -0.0084,0.133088 -0.0095,0.248364 0,0.339843 0.0047,0.04574 0.01206,0.08448 0.02539,0.121094 0.01258,0.03451 0.03456,0.07038 0.07617,0.09375 0.01949,0.01202 0.04293,0.02341 0.06836,0.02148 0.02906,-0.0022 0.0519,-0.01627 0.06836,-0.0293 0.03292,-0.02607 0.05096,-0.05517 0.06836,-0.08984 0.0348,-0.06934 0.06324,-0.162049 0.09375,-0.279297 0.06101,-0.234496 0.119869,-0.558611 0.166015,-0.890625 0.04615,-0.332014 0.08124,-0.672051 0.0918,-0.941406 0.0053,-0.134676 0.0044,-0.249988 -0.0039,-0.341797 -0.0042,-0.0459 -0.01143,-0.0857 -0.02148,-0.121094 -0.0093,-0.03285 -0.02189,-0.06484 -0.05664,-0.09375 -0.01014,-0.0095 -0.02119,-0.02071 -0.03906,-0.02539 -0.0113,-0.003 -0.02226,-0.0031 -0.0332,-0.002 z"
       transform="matrix(4.5245092,0,0,4.5245092,-30.962325,275.78153)" />
  </g>
  <circle
     style="display:inline;fill:#c02700;fill-opacity:1;stroke-width:1;stroke-linecap:round;stroke-linejoin:round;enable-background:new"
     id="circle2470"
     cx="50.5"
     cy="13.25"
     r="2.75" />
  <circle
     style="display:inline;fill:#f1f3f5;fill-opacity:1;stroke-width:1;stroke-linecap:round;stroke-linejoin:round;enable-background:new"
     id="circle2472"
     cx="50.5"
     cy="12.75"
     r="2.75" />
  <rect
     style="display:inline;fill:#bcc5ca;fill-opacity:1;stroke-width:0.999988;stroke-linecap:round;stroke-linejoin:round;enable-background:new"
     id="rect888"
     height="10"
     x="12"
     y="4"
     ry="0.99999994"
     rx="1"
     width="3" />
  <rect
     style="display:inline;fill:#bcc5ca;fill-opacity:1;stroke-width:0.999988;stroke-linecap:round;stroke-linejoin:round;enable-background:new"
     id="rect8041"
     width="3"
     height="10"
     x="49"
     y="4"
     rx="1"
     ry="0.99999994" />
</svg>
