<?xml version="1.0" encoding="UTF-8" standalone="no"?>
<svg
   width="128"
   height="128"
   id="svg11300"
   version="1.0"
   style="display:inline;enable-background:new"
   viewBox="0 0 128 128"
   sodipodi:docname="org.xfce.orage.svg"
   inkscape:version="1.1.1 (3bf5ae0d25, 2021-09-20)"
   inkscape:export-filename="/home/maug/Downloads/xfce4-taskmanager.svg.png"
   inkscape:export-xdpi="36"
   inkscape:export-ydpi="36"
   xmlns:inkscape="http://www.inkscape.org/namespaces/inkscape"
   xmlns:sodipodi="http://sodipodi.sourceforge.net/DTD/sodipodi-0.dtd"
   xmlns="http://www.w3.org/2000/svg"
   xmlns:svg="http://www.w3.org/2000/svg"
   xmlns:rdf="http://www.w3.org/1999/02/22-rdf-syntax-ns#"
   xmlns:cc="http://creativecommons.org/ns#"
   xmlns:dc="http://purl.org/dc/elements/1.1/">
  <sodipodi:namedview
     pagecolor="#ffffff"
     bordercolor="#666666"
     borderopacity="1"
     objecttolerance="10"
     gridtolerance="10"
     guidetolerance="10"
     inkscape:pageopacity="0"
     inkscape:pageshadow="2"
     inkscape:window-width="1385"
     inkscape:window-height="1026"
     id="namedview44"
     showgrid="false"
     inkscape:zoom="2.6901264"
     inkscape:cx="53.714948"
     inkscape:cy="131.59233"
     inkscape:window-x="401"
     inkscape:window-y="0"
     inkscape:window-maximized="0"
     inkscape:current-layer="svg11300"
     inkscape:lockguides="false"
     showguides="true"
     inkscape:guide-bbox="true"
     inkscape:pagecheckerboard="0"
     inkscape:snap-center="true"
     inkscape:snap-object-midpoints="true">
    <inkscape:grid
       type="xygrid"
       id="grid4761"
       empspacing="4" />
  </sodipodi:namedview>
  <title
     id="title4162">Adwaita Icon Template</title>
  <defs
     id="defs3">
    <linearGradient
       id="linearGradient1020"
       inkscape:swatch="gradient">
      <stop
         style="stop-color:#ffffff;stop-opacity:1;"
         offset="0"
         id="stop1016" />
      <stop
         style="stop-color:#ffffff;stop-opacity:0.09411765"
         offset="1"
         id="stop1018" />
    </linearGradient>
  </defs>
  <metadata
     id="metadata4">
    <rdf:RDF>
      <cc:Work
         rdf:about="">
        <dc:title>Adwaita Icon Template</dc:title>
      </cc:Work>
    </rdf:RDF>
  </metadata>
  <rect
     style="display:inline;opacity:1;fill:#e6461d;fill-opacity:1;stroke:none;stroke-width:0.25;stroke-linecap:butt;stroke-linejoin:miter;stroke-miterlimit:4;stroke-dasharray:none;stroke-dashoffset:0;stroke-opacity:1;marker:none;marker-start:none;marker-mid:none;marker-end:none;paint-order:normal;enable-background:new"
     id="rect905"
     width="104"
     height="100"
     x="12"
     y="16"
     rx="8"
     ry="8" />
  <rect
     style="display:inline;opacity:1;fill:#d2d8dc;fill-opacity:1;stroke:none;stroke-width:0.25;stroke-linecap:butt;stroke-linejoin:miter;stroke-miterlimit:4;stroke-dasharray:none;stroke-dashoffset:0;stroke-opacity:1;marker:none;marker-start:none;marker-mid:none;marker-end:none;paint-order:normal;enable-background:new"
     id="rect879"
     width="104"
     height="100"
     x="12"
     y="14"
     rx="8"
     ry="8" />
  <rect
     ry="8"
     rx="8"
     y="22"
     x="13"
     height="90"
     width="102"
     id="rect1711"
     style="display:inline;opacity:1;fill:#f1f3f5;fill-opacity:1;stroke:none;stroke-width:0.25;stroke-linecap:butt;stroke-linejoin:miter;stroke-miterlimit:4;stroke-dasharray:none;stroke-dashoffset:0;stroke-opacity:1;marker:none;marker-start:none;marker-mid:none;marker-end:none;paint-order:normal;enable-background:new" />
  <rect
     style="opacity:1;fill:#e6461d;fill-opacity:1;stroke-width:0.999996;stroke-linecap:round;stroke-linejoin:round"
     id="rect874"
     width="104"
     height="26"
     x="12"
     y="12"
     rx="8"
     ry="8" />
  <rect
     style="opacity:1;fill:#e6461d;fill-opacity:1;stroke-width:0.999997;stroke-linecap:round;stroke-linejoin:round"
     id="rect1106"
     width="104"
     height="13"
     x="12"
     y="25" />
  <rect
     style="opacity:1;fill:#c02700;fill-opacity:1;stroke-width:0.999997;stroke-linecap:round;stroke-linejoin:round"
     id="rect15096"
     width="104"
     height="1"
     x="12"
     y="38" />
  <rect
     style="opacity:1;fill:#bcc5ca;fill-opacity:1;stroke-width:1;stroke-linecap:round;stroke-linejoin:round"
     id="rect15906"
     width="12"
     height="12"
     x="45"
     y="49" />
  <rect
     style="opacity:1;fill:#bcc5ca;fill-opacity:1;stroke-width:1;stroke-linecap:round;stroke-linejoin:round"
     id="rect15988"
     width="12"
     height="12"
     x="58"
     y="49" />
  <rect
     style="opacity:1;fill:#bcc5ca;fill-opacity:1;stroke-width:1;stroke-linecap:round;stroke-linejoin:round"
     id="rect15992"
     width="12"
     height="12"
     x="32"
     y="49" />
  <rect
     style="opacity:1;fill:#bcc5ca;fill-opacity:1;stroke-width:1;stroke-linecap:round;stroke-linejoin:round"
     id="rect16370"
     width="12"
     height="12"
     x="71"
     y="49" />
  <rect
     style="opacity:1;fill:#bcc5ca;fill-opacity:1;stroke-width:1;stroke-linecap:round;stroke-linejoin:round"
     id="rect17370"
     width="12"
     height="12"
     x="84"
     y="49" />
  <circle
     style="display:inline;fill:#c02700;fill-opacity:1;stroke-width:1;stroke-linecap:round;stroke-linejoin:round;enable-background:new"
     id="circle191262"
     cx="28"
     cy="26.5"
     r="5.5" />
  <circle
     style="display:inline;fill:#f1f3f5;fill-opacity:1;stroke-width:1;stroke-linecap:round;stroke-linejoin:round;enable-background:new"
     id="path2530"
     cx="28"
     cy="25.5"
     r="5.5" />
  <rect
     style="opacity:1;fill:#d2d8dc;fill-opacity:1;stroke-width:1;stroke-linecap:round;stroke-linejoin:round"
     id="rect112097"
     width="12"
     height="12"
     x="97"
     y="49" />
  <rect
     style="opacity:1;fill:#bcc5ca;fill-opacity:1;stroke-width:1;stroke-linecap:round;stroke-linejoin:round"
     id="rect112193"
     width="12"
     height="12"
     x="45"
     y="62" />
  <rect
     style="opacity:1;fill:#bcc5ca;fill-opacity:1;stroke-width:1;stroke-linecap:round;stroke-linejoin:round"
     id="rect112195"
     width="12"
     height="12"
     x="58"
     y="62" />
  <rect
     style="opacity:1;fill:#bcc5ca;fill-opacity:1;stroke-width:1;stroke-linecap:round;stroke-linejoin:round"
     id="rect112197"
     width="12"
     height="12"
     x="32"
     y="62" />
  <rect
     style="opacity:1;fill:#bcc5ca;fill-opacity:1;stroke-width:1;stroke-linecap:round;stroke-linejoin:round"
     id="rect112199"
     width="12"
     height="12"
     x="71"
     y="62" />
  <rect
     style="opacity:1;fill:#bcc5ca;fill-opacity:1;stroke-width:1;stroke-linecap:round;stroke-linejoin:round"
     id="rect112201"
     width="12"
     height="12"
     x="84"
     y="62" />
  <rect
     style="opacity:1;fill:#d2d8dc;fill-opacity:1;stroke-width:1;stroke-linecap:round;stroke-linejoin:round"
     id="rect112205"
     width="12"
     height="12"
     x="97"
     y="62" />
  <rect
     style="opacity:1;fill:#bcc5ca;fill-opacity:1;stroke-width:1;stroke-linecap:round;stroke-linejoin:round"
     id="rect112287"
     width="12"
     height="12"
     x="45"
     y="75" />
  <rect
     style="opacity:1;fill:#bcc5ca;fill-opacity:1;stroke-width:1;stroke-linecap:round;stroke-linejoin:round"
     id="rect112289"
     width="12"
     height="12"
     x="58"
     y="75" />
  <rect
     style="opacity:1;fill:#bcc5ca;fill-opacity:1;stroke-width:1;stroke-linecap:round;stroke-linejoin:round"
     id="rect112291"
     width="12"
     height="12"
     x="32"
     y="75" />
  <rect
     style="opacity:1;fill:#bcc5ca;fill-opacity:1;stroke-width:1;stroke-linecap:round;stroke-linejoin:round"
     id="rect112293"
     width="12"
     height="12"
     x="71"
     y="75" />
  <rect
     style="opacity:1;fill:#bcc5ca;fill-opacity:1;stroke-width:1;stroke-linecap:round;stroke-linejoin:round"
     id="rect112295"
     width="12"
     height="12"
     x="84"
     y="75" />
  <rect
     style="opacity:1;fill:#d2d8dc;fill-opacity:1;stroke-width:1;stroke-linecap:round;stroke-linejoin:round"
     id="rect112299"
     width="12"
     height="12"
     x="97"
     y="75" />
  <rect
     style="opacity:1;fill:#bcc5ca;fill-opacity:1;stroke-width:1;stroke-linecap:round;stroke-linejoin:round"
     id="rect112395"
     width="12"
     height="12"
     x="45"
     y="88" />
  <rect
     style="opacity:1;fill:#bcc5ca;fill-opacity:1;stroke-width:1;stroke-linecap:round;stroke-linejoin:round"
     id="rect112397"
     width="12"
     height="12"
     x="58"
     y="88" />
  <rect
     style="opacity:1;fill:#bcc5ca;fill-opacity:1;stroke-width:1;stroke-linecap:round;stroke-linejoin:round"
     id="rect112399"
     width="12"
     height="12"
     x="32"
     y="88" />
  <rect
     style="opacity:1;fill:#bcc5ca;fill-opacity:1;stroke-width:1;stroke-linecap:round;stroke-linejoin:round"
     id="rect112401"
     width="12"
     height="12"
     x="71"
     y="88" />
  <rect
     style="opacity:1;fill:#bcc5ca;fill-opacity:1;stroke-width:1;stroke-linecap:round;stroke-linejoin:round"
     id="rect112403"
     width="12"
     height="12"
     x="84"
     y="88" />
  <rect
     style="opacity:1;fill:#d2d8dc;fill-opacity:1;stroke-width:1;stroke-linecap:round;stroke-linejoin:round"
     id="rect112407"
     width="12"
     height="12"
     x="97"
     y="88" />
  <rect
     style="opacity:1;fill:#d2d8dc;fill-opacity:1;stroke-width:1;stroke-linecap:round;stroke-linejoin:round"
     id="rect25256"
     width="12"
     height="12"
     x="19"
     y="49" />
  <rect
     style="opacity:1;fill:#d2d8dc;fill-opacity:1;stroke-width:1;stroke-linecap:round;stroke-linejoin:round"
     id="rect25258"
     width="12"
     height="12"
     x="19"
     y="62" />
  <rect
     style="opacity:1;fill:#d2d8dc;fill-opacity:1;stroke-width:1;stroke-linecap:round;stroke-linejoin:round"
     id="rect25260"
     width="12"
     height="12"
     x="19"
     y="75" />
  <rect
     style="opacity:1;fill:#d2d8dc;fill-opacity:1;stroke-width:1;stroke-linecap:round;stroke-linejoin:round"
     id="rect25262"
     width="12"
     height="12"
     x="19"
     y="88" />
  <g
     id="g895"
     style="display:inline;fill:#f1f3f5;fill-opacity:1;stroke:none;stroke-width:0.839763;enable-background:new"
     transform="matrix(0.22101845,0,0,0.22101845,8.618487,-60.611416)" />
  <g
     id="g901"
     transform="matrix(0.22101845,0,0,0.22101845,6.843245,-60.952807)"
     style="display:inline;fill:#f1f3f5;fill-opacity:1;stroke:none;stroke-width:0.839763;enable-background:new">
    <path
       id="path899"
       style="color:#000000;fill:#c02700;fill-opacity:1;fill-rule:evenodd;stroke-width:0.705203;-inkscape-stroke:none"
       d="m 152.89825,352.71183 -0.10524,0.0109 -0.10524,0.0528 c -0.12953,0.0709 -0.27228,0.21523 -0.34725,0.38938 -0.075,0.17415 -0.0684,0.35346 -0.0421,0.48405 0.0528,0.26124 0.15591,0.39128 0.2736,0.53669 0.23541,0.29083 0.56904,0.58462 1.03126,0.93655 0.92441,0.70386 2.35795,1.62008 4.30395,2.72548 3.89199,2.21082 9.80919,5.14267 17.51047,8.31327 7.59603,3.12706 16.71886,8.69303 23.69807,13.78529 3.4896,2.54612 6.45233,4.97739 8.40797,6.90316 0.97782,0.96289 1.70118,1.80632 2.10463,2.43085 0.2017,0.31228 0.31811,0.5733 0.35779,0.72609 0.0398,0.1528 0.007,0.14456 0.0317,0.10524 l 0.0208,-0.0208 c -5.06204,7.12978 -8.0568,15.7792 -6.0087,30.29606 v 0.0109 c 0.0394,0.27238 -0.23423,0.91341 -0.87342,1.69423 -0.63922,0.78082 -1.56057,1.67631 -2.49398,2.63078 -0.9334,0.95447 -1.8799,1.96082 -2.57817,3.02013 -0.69826,1.05933 -1.16823,2.21438 -0.98917,3.4095 v 0.0109 c 0.0878,0.53339 0.4496,1.00761 0.90499,1.21016 0.45538,0.20256 0.93376,0.20351 1.43114,0.13677 0.99477,-0.13347 2.11985,-0.57584 3.26217,-1.0523 1.14231,-0.47645 2.28398,-0.99481 3.15694,-1.31539 0.39775,-0.14605 0.71834,-0.23346 0.94708,-0.2736 -0.002,0.15139 0.019,0.22071 -0.0208,0.46303 -0.0729,0.4406 -0.21315,0.99661 -0.38938,1.62057 -0.35237,1.2479 -0.85837,2.75952 -1.32592,4.24081 -0.46756,1.4813 -0.89596,2.93078 -1.08389,4.11454 -0.094,0.59188 -0.13044,1.11698 -0.0528,1.59952 0.0778,0.48253 0.34341,1.01581 0.87342,1.21016 l 0.0208,0.0109 0.0208,0.0109 c 0.3673,0.10918 0.60457,0.009 0.84185,-0.0841 0.23726,-0.0932 0.47741,-0.23387 0.74714,-0.39988 0.53941,-0.33196 1.18414,-0.80313 1.91521,-1.37853 1.46214,-1.15081 3.25955,-2.70107 5.03006,-4.26186 1.77048,-1.56079 3.50982,-3.12826 4.85115,-4.28291 0.67066,-0.57733 1.24221,-1.05585 1.65213,-1.36801 0.19645,-0.14962 0.35327,-0.25527 0.45247,-0.31567 10.80049,3.21859 23.10231,3.61542 32.81109,3.17798 4.88864,-0.22025 9.11915,-0.65324 12.16473,-1.0418 1.52279,-0.19428 2.74328,-0.37331 3.60943,-0.51561 0.43309,-0.0712 0.78405,-0.13184 1.03127,-0.17885 0.098,-0.019 0.16238,-0.0385 0.23152,-0.0528 v 0.0109 c 0.13958,0.0612 0.35748,0.14949 0.63139,0.2736 0.54784,0.24821 1.33841,0.60905 2.29403,1.04178 1.91129,0.86546 4.4813,2.02421 7.11364,3.14641 2.63234,1.12224 5.31884,2.21171 7.48194,2.95701 1.08154,0.37264 2.03281,0.65852 2.79915,0.8208 0.38318,0.0811 0.72378,0.12768 1.03126,0.13677 0.30749,0.009 0.59491,0.0104 0.91551,-0.19994 l 0.0737,-0.0421 0.0528,-0.0632 c 1.26582,-1.37074 1.32,-3.06222 0.71558,-4.5565 -0.60442,-1.49429 -1.772,-2.90231 -2.97805,-4.2303 -1.20602,-1.32798 -2.45907,-2.57661 -3.24112,-3.59891 -0.39101,-0.51114 -0.66103,-0.9656 -0.75766,-1.28381 -0.0853,-0.28088 -0.0458,-0.38445 0.0421,-0.51562 0.0773,-0.009 0.19143,-0.0163 0.36829,0 0.42033,0.0385 1.04888,0.16152 1.78894,0.3578 1.48011,0.39254 3.40957,1.04703 5.34575,1.6837 1.93617,0.63668 3.87309,1.26011 5.40888,1.62056 0.7679,0.18021 1.43499,0.29862 1.99939,0.30518 0.2822,0.003 0.53615,-0.0122 0.79976,-0.10524 0.26364,-0.0928 0.56632,-0.30622 0.69452,-0.6314 l 0.0109,-0.0208 v -0.0208 c 0.36214,-1.09292 -0.0385,-2.25933 -0.68399,-3.43054 -0.64571,-1.17121 -1.58504,-2.37649 -2.5887,-3.54629 -1.00365,-1.16982 -2.07515,-2.29447 -2.95699,-3.24113 -0.87876,-0.94334 -1.58376,-1.75765 -1.79946,-2.11514 -0.4462,-0.79208 -0.72508,-1.85062 -0.59981,-2.87282 0.12551,-1.02433 0.61584,-2.0128 1.78892,-2.83072 0.23093,-0.16093 0.95709,-0.54059 1.93626,-1.01021 0.97918,-0.46961 2.24236,-1.061 3.68309,-1.73631 2.88146,-1.35062 6.47209,-3.06407 9.95487,-4.97744 3.48279,-1.91339 6.85022,-4.01357 9.32349,-6.1876 2.47191,-2.17285 4.15418,-4.46492 3.81989,-6.84003 -0.52041,-3.86081 -3.07204,-6.80004 -6.47172,-9.00779 -3.39966,-2.20774 -7.67195,-3.74182 -11.89113,-4.85116 -4.21916,-1.10933 -8.38356,-1.78616 -11.51229,-2.27299 -1.56436,-0.24342 -2.87473,-0.44341 -3.78832,-0.61034 -0.45678,-0.0835 -0.80995,-0.16687 -1.03126,-0.23152 h -0.0109 c -0.002,-0.16148 -0.002,-0.36318 0,-0.63139 0.004,-0.59602 0.0131,-1.41402 0,-2.37822 -0.0253,-1.92842 -0.13266,-4.42037 -0.53668,-6.79794 -0.40404,-2.37757 -1.07639,-4.6558 -2.38876,-6.19812 -1.31094,-1.54064 -3.39418,-2.1879 -5.92451,-1.18911 -1.67213,0.62549 -2.61279,2.07232 -3.00961,3.7357 -0.39744,1.66576 -0.32088,3.59446 -0.0632,5.48255 0.25777,1.8881 0.70655,3.73341 1.11545,5.21947 0.40888,1.48605 0.78433,2.66579 0.85237,2.96752 0.0425,0.18799 0.0403,0.13112 -0.0317,0.18944 -0.072,0.0583 -0.30513,0.15302 -0.59982,0.1789 -0.29473,0.0258 -0.63603,-0.007 -0.90499,-0.0737 -0.26898,-0.0668 -0.45791,-0.21346 -0.42096,-0.16835 -0.0566,-0.0691 -0.27427,-0.43585 -0.5051,-0.92604 -0.23084,-0.49019 -0.49639,-1.11648 -0.81028,-1.83102 -0.62779,-1.42908 -1.40485,-3.19153 -2.30457,-4.84064 -0.89971,-1.64911 -1.91355,-3.19299 -3.09379,-4.23029 -0.59014,-0.51863 -1.23654,-0.9096 -1.94679,-1.08388 -0.71024,-0.17424 -1.48453,-0.10995 -2.20985,0.25251 l -0.0109,0.0109 -0.0109,0.0109 c -1.84272,1.01599 -2.83721,2.63389 -3.24112,4.37762 -0.40395,1.74372 -0.26219,3.61338 0.0317,5.35626 0.29373,1.7429 0.74789,3.3621 1.0418,4.53547 0.14691,0.58668 0.24939,1.07051 0.27359,1.34695 0.009,0.0917 0.002,0.10886 0,0.13683 -1.31513,0.82149 -1.98182,2.11558 -2.49397,3.45159 -0.53658,1.39967 -0.97864,2.86531 -1.89417,4.13559 h -0.0108 c -0.27709,0.39707 -0.86251,0.76155 -1.77841,0.99968 -0.91591,0.23813 -2.12529,0.35468 -3.53578,0.3578 -2.82097,0.006 -6.4291,-0.43408 -10.18637,-1.03127 -7.51455,-1.19432 -15.58868,-3.04412 -19.70981,-3.29373 -3.10013,-0.18302 -6.03658,0.97922 -8.26064,2.07306 -1.11204,0.54691 -2.05095,1.08616 -2.71497,1.43114 -0.30825,0.16012 -0.54586,0.26143 -0.69452,0.31568 -7.18922,-7.1638 -21.73014,-19.38274 -37.86219,-23.50866 -4.42291,-1.20028 -10.006,-3.56433 -14.53244,-5.61935 -2.26321,-1.02751 -4.26096,-1.98348 -5.73509,-2.67287 -0.73706,-0.34473 -1.34133,-0.6154 -1.78894,-0.81028 -0.22382,-0.0974 -0.40458,-0.17555 -0.55772,-0.23152 -0.0766,-0.0281 -0.14578,-0.054 -0.22102,-0.0737 -0.0752,-0.0199 -0.12108,-0.0625 -0.3683,-0.0208 z"
       sodipodi:nodetypes="cccscssscssscccccsssccsssscccsscccccssssscssscccsssssccccssssccsssccccccsscsssssscssssccccsscscscscccssssscccscsccsccscccssccssccccc" />
  </g>
  <g
     id="g7021"
     style="display:inline;fill:#c02700;fill-opacity:1;stroke:none;stroke-width:0.620013;enable-background:new"
     transform="matrix(0.2993534,0,0,0.2993534,-15.466993,-88.749799)">
    <path
       id="path7019"
       style="color:#000000;fill:#c02700;fill-opacity:1;fill-rule:evenodd;stroke-width:0.0822207pt;-inkscape-stroke:none"
       d="m 79.529297,18.498047 c -0.02523,-0.001 -0.04972,0.0041 -0.06836,0.01172 -0.03728,0.01516 -0.06734,0.03721 -0.101563,0.06641 -0.06844,0.05838 -0.144957,0.144781 -0.230469,0.251953 -0.171024,0.214346 -0.374789,0.513022 -0.560547,0.826172 -0.185757,0.313152 -0.354127,0.638724 -0.457031,0.908203 -0.05145,0.134737 -0.08629,0.255804 -0.09766,0.359375 -0.01134,0.103421 -0.0024,0.206252 0.08008,0.267578 0.04552,0.03372 0.108698,0.02421 0.144531,0.0059 0.03594,-0.01841 0.06476,-0.04419 0.0957,-0.07617 0.06188,-0.06396 0.12968,-0.155778 0.205078,-0.269532 0.150797,-0.227512 0.327588,-0.541624 0.496094,-0.863281 0.168509,-0.321657 0.327242,-0.6507 0.439453,-0.90625 0.0561,-0.127775 0.100402,-0.235186 0.128907,-0.318359 0.01426,-0.04159 0.02522,-0.07641 0.03125,-0.107422 0.003,-0.01552 0.0062,-0.03103 0.0059,-0.04883 -4.42e-4,-0.01779 5.04e-4,-0.04471 -0.03125,-0.07617 l -0.0039,-0.002 -0.002,-0.0039 c -0.02205,-0.01824 -0.04899,-0.02439 -0.07422,-0.02539 z"
       transform="matrix(4.5245092,0,0,4.5245092,-38.994423,274.23691)" />
  </g>
  <g
     id="g7025"
     transform="matrix(0.2993534,0,0,0.2993534,-17.871429,-89.212188)"
     style="display:inline;fill:#c02700;fill-opacity:1;stroke:none;stroke-width:0.620013;enable-background:new">
    <path
       id="path7023"
       style="color:#000000;fill:#c02700;fill-opacity:1;fill-rule:evenodd;stroke-width:0.0822207pt;-inkscape-stroke:none"
       d="m 77.755859,18.160156 c -0.01094,0.0012 -0.02133,0.0043 -0.0293,0.0078 -0.03186,0.01375 -0.04171,0.028 -0.05078,0.04102 -0.01815,0.02604 -0.02833,0.05219 -0.04102,0.08594 -0.02537,0.06749 -0.05238,0.163529 -0.08203,0.28125 -0.05931,0.235446 -0.125504,0.558247 -0.18164,0.888672 -0.05614,0.330425 -0.102419,0.667417 -0.119141,0.933594 -0.0084,0.133088 -0.0095,0.248364 0,0.339843 0.0047,0.04574 0.01206,0.08448 0.02539,0.121094 0.01258,0.03451 0.03456,0.07038 0.07617,0.09375 0.01949,0.01202 0.04293,0.02341 0.06836,0.02148 0.02906,-0.0022 0.0519,-0.01627 0.06836,-0.0293 0.03292,-0.02607 0.05096,-0.05517 0.06836,-0.08984 0.0348,-0.06934 0.06324,-0.162049 0.09375,-0.279297 0.06101,-0.234496 0.119869,-0.558611 0.166015,-0.890625 0.04615,-0.332014 0.08124,-0.672051 0.0918,-0.941406 0.0053,-0.134676 0.0044,-0.249988 -0.0039,-0.341797 -0.0042,-0.0459 -0.01143,-0.0857 -0.02148,-0.121094 -0.0093,-0.03285 -0.02189,-0.06484 -0.05664,-0.09375 -0.01014,-0.0095 -0.02119,-0.02071 -0.03906,-0.02539 -0.0113,-0.003 -0.02226,-0.0031 -0.0332,-0.002 z"
       transform="matrix(4.5245092,0,0,4.5245092,-30.962325,275.78153)" />
  </g>
  <path
     id="path7721"
     style="color:#000000;display:inline;fill:#f1f3f5;fill-opacity:1;fill-rule:evenodd;stroke:none;stroke-width:0.18521pt;-inkscape-stroke:none;enable-background:new"
     d="m 40.63658,15.003086 -0.02326,0.0024 -0.02326,0.01167 c -0.02863,0.01566 -0.06018,0.04757 -0.07675,0.08606 -0.01657,0.03849 -0.01511,0.07812 -0.0093,0.106983 0.01167,0.05774 0.03446,0.08648 0.06047,0.118618 0.05203,0.06428 0.12577,0.129213 0.227928,0.206995 0.204312,0.155566 0.521151,0.358068 0.951253,0.602383 0.860201,0.488632 2.168011,1.136625 3.870137,1.837385 1.678863,0.691138 3.695177,1.92132 5.23771,3.046803 0.771267,0.562741 1.426085,1.100096 1.858317,1.525727 0.216117,0.212816 0.375992,0.399229 0.465161,0.537262 0.04458,0.06902 0.07031,0.126709 0.07908,0.16048 0.0088,0.03377 0.0015,0.03195 0.007,0.02326 l 0.0046,-0.0046 c -1.118805,1.575814 -1.780701,3.487494 -1.328033,6.695989 v 0.0024 c 0.0087,0.0602 -0.05177,0.201879 -0.193043,0.374455 -0.141279,0.172577 -0.344914,0.370495 -0.551215,0.581452 -0.206298,0.210955 -0.415493,0.433378 -0.569823,0.667505 -0.154329,0.23413 -0.2582,0.489417 -0.218625,0.753561 v 0.0024 c 0.01941,0.11789 0.09937,0.2227 0.200019,0.267468 0.100649,0.04477 0.206379,0.04498 0.31631,0.03023 0.219862,-0.0295 0.468526,-0.127273 0.720998,-0.232579 0.252473,-0.105304 0.504802,-0.219871 0.697742,-0.290725 0.08791,-0.03228 0.158767,-0.0516 0.209323,-0.06047 -3.71e-4,0.03346 0.0042,0.04878 -0.0046,0.102338 -0.01611,0.09738 -0.04711,0.220268 -0.08606,0.358175 -0.07788,0.27581 -0.189716,0.609905 -0.293053,0.937298 -0.103338,0.327395 -0.198024,0.647756 -0.239558,0.909389 -0.02078,0.130817 -0.02883,0.246873 -0.01167,0.353523 0.01719,0.106649 0.0759,0.224513 0.19304,0.267467 l 0.0046,0.0024 0.0046,0.0024 c 0.08118,0.02413 0.133622,0.0019 0.186064,-0.0186 0.05244,-0.0206 0.105517,-0.05169 0.165133,-0.08838 0.119218,-0.07337 0.261715,-0.177506 0.423296,-0.304681 0.323159,-0.254351 0.720421,-0.596987 1.111735,-0.941949 0.391309,-0.344963 0.775736,-0.691404 1.072195,-0.946603 0.148228,-0.1276 0.274551,-0.233361 0.36515,-0.302355 0.04342,-0.03307 0.07808,-0.05642 0.100005,-0.06977 2.387108,0.711369 5.106037,0.799076 7.251857,0.702393 1.080478,-0.04868 2.015499,-0.144379 2.68863,-0.230256 0.336564,-0.04294 0.606314,-0.08251 0.79775,-0.11396 0.09572,-0.01574 0.173289,-0.02914 0.227929,-0.03953 0.02166,-0.0042 0.03589,-0.0085 0.05117,-0.01168 0,0 0,0.0024 0,0.0024 0.03085,0.01353 0.07901,0.03304 0.139549,0.06047 0.121082,0.05486 0.295813,0.134613 0.507024,0.230254 0.422429,0.191283 0.990449,0.447386 1.572244,0.695415 0.581796,0.248034 1.175563,0.488828 1.653647,0.653553 0.239042,0.08236 0.44929,0.145545 0.618664,0.181411 0.08469,0.01793 0.159969,0.02822 0.227928,0.03023 0.06796,0.002 0.131487,0.0023 0.202345,-0.04419 l 0.01628,-0.0093 0.01167,-0.01396 c 0.27977,-0.30296 0.291744,-0.676809 0.158156,-1.007071 -0.133588,-0.330267 -0.391645,-0.641464 -0.658203,-0.934975 -0.266554,-0.293509 -0.5435,-0.569479 -0.716349,-0.795425 -0.08642,-0.112971 -0.146099,-0.213416 -0.167456,-0.283746 -0.01885,-0.06208 -0.01012,-0.08497 0.0093,-0.113962 0.01709,-0.0019 0.04231,-0.0036 0.0814,0 0.0929,0.0085 0.231821,0.0357 0.395387,0.07908 0.327133,0.08676 0.753579,0.231414 1.18151,0.372129 0.42793,0.140719 0.856024,0.278507 1.195462,0.358174 0.16972,0.03983 0.317159,0.066 0.441903,0.06745 0.06237,7.42e-4 0.118499,-0.0027 0.176761,-0.02326 0.05827,-0.0205 0.125167,-0.06768 0.153503,-0.13955 l 0.0024,-0.0046 v -0.0046 c 0.08004,-0.241555 -0.0085,-0.499354 -0.151176,-0.758213 -0.142712,-0.258859 -0.350322,-0.525246 -0.572149,-0.783795 -0.221826,-0.258551 -0.458648,-0.50712 -0.65355,-0.716349 -0.194221,-0.208495 -0.350039,-0.388473 -0.397713,-0.467486 -0.09862,-0.175063 -0.160257,-0.409021 -0.13257,-0.634945 0.02774,-0.226395 0.136112,-0.444865 0.395385,-0.625641 0.05104,-0.03557 0.211533,-0.11948 0.427949,-0.223276 0.216417,-0.103792 0.495603,-0.234501 0.814031,-0.383757 0.636855,-0.298512 1.43045,-0.677216 2.200209,-1.100106 0.769762,-0.422893 1.514025,-0.887072 2.060664,-1.367573 0.546338,-0.480239 0.918151,-0.98683 0.844266,-1.511773 -0.11502,-0.853309 -0.678977,-1.502933 -1.430369,-1.990888 -0.751389,-0.487951 -1.695642,-0.827011 -2.628159,-1.072195 -0.932513,-0.245183 -1.852923,-0.394774 -2.544429,-0.502374 -0.345753,-0.0538 -0.635368,-0.098 -0.837289,-0.134896 -0.100957,-0.01845 -0.179013,-0.03688 -0.227928,-0.05117 0,0 -0.0024,0 -0.0024,0 -3.71e-4,-0.03569 -3.71e-4,-0.08027 0,-0.139548 9.28e-4,-0.131732 0.0029,-0.312524 0,-0.525632 -0.0056,-0.426215 -0.02932,-0.976983 -0.118615,-1.502469 -0.0893,-0.525487 -0.237903,-1.029018 -0.52796,-1.369898 -0.289743,-0.340512 -0.750178,-0.483567 -1.309427,-0.262816 -0.369571,0.138244 -0.577475,0.45802 -0.66518,0.825659 -0.08784,0.368163 -0.07092,0.794442 -0.01396,1.211744 0.05697,0.417305 0.156159,0.825153 0.246535,1.1536 0.09037,0.328444 0.173351,0.589189 0.188389,0.655876 0.0094,0.04155 0.0089,0.02898 -0.007,0.04187 -0.01591,0.01288 -0.06744,0.03382 -0.132571,0.03954 -0.06514,0.0057 -0.140574,-0.0015 -0.200019,-0.01628 -0.05945,-0.01477 -0.101207,-0.04718 -0.09304,-0.03721 -0.01251,-0.01526 -0.06062,-0.09633 -0.111638,-0.20467 -0.05102,-0.108341 -0.10971,-0.246764 -0.179087,-0.40469 -0.138753,-0.315854 -0.310496,-0.705387 -0.509351,-1.069871 -0.198853,-0.364483 -0.42293,-0.705709 -0.683786,-0.934972 -0.130431,-0.114627 -0.273297,-0.201038 -0.430275,-0.239558 -0.156976,-0.03851 -0.328109,-0.0243 -0.488419,0.05581 l -0.0024,0.0024 -0.0024,0.0024 c -0.407275,0.224552 -0.627075,0.582139 -0.716347,0.967535 -0.08928,0.385394 -0.05795,0.798623 0.007,1.183833 0.06492,0.385212 0.165298,0.743086 0.230256,1.002422 0.03247,0.129667 0.05512,0.236602 0.06047,0.297702 0.0019,0.02027 3.71e-4,0.02406 0,0.03024 -0.290669,0.181566 -0.43802,0.467583 -0.551215,0.762865 -0.118593,0.309354 -0.216297,0.633287 -0.418645,0.914042 h -0.0024 c -0.06124,0.08776 -0.190629,0.168318 -0.393061,0.220949 -0.202432,0.05263 -0.469727,0.07839 -0.781471,0.07908 -0.623488,0.0013 -1.420951,-0.09594 -2.251377,-0.22793 -1.660853,-0.263967 -3.445386,-0.672806 -4.356232,-0.727975 -0.685185,-0.04045 -1.334195,0.216425 -1.825754,0.458184 -0.24578,0.120878 -0.453297,0.240061 -0.600057,0.316309 -0.06813,0.03539 -0.120646,0.05778 -0.153503,0.06977 -1.58895,-1.583331 -4.802762,-4.283943 -8.368243,-5.195847 -0.977544,-0.265283 -2.21151,-0.787782 -3.211936,-1.241979 -0.500212,-0.2271 -0.941751,-0.438386 -1.267562,-0.590755 -0.162902,-0.07619 -0.296457,-0.136013 -0.395387,-0.179086 -0.04947,-0.02153 -0.08942,-0.0388 -0.123267,-0.05117 -0.01693,-0.0062 -0.03222,-0.01194 -0.04885,-0.01628 -0.01663,-0.0044 -0.02676,-0.01381 -0.0814,-0.0046 z" />
  <g
     id="path13-0"
     style="display:inline;fill:#f1f3f5;fill-opacity:1;stroke:none;stroke-width:0.60822;enable-background:new"
     transform="matrix(0.30515812,0,0,0.30515812,-17.499134,-91.760805)">
    <path
       id="path7709"
       style="color:#000000;fill:#f1f3f5;fill-opacity:1;fill-rule:evenodd;stroke-width:0.0806567pt;-inkscape-stroke:none"
       d="m 79.529297,18.498047 c -0.02523,-0.001 -0.04972,0.0041 -0.06836,0.01172 -0.03728,0.01516 -0.06734,0.03721 -0.101563,0.06641 -0.06844,0.05838 -0.144957,0.144781 -0.230469,0.251953 -0.171024,0.214346 -0.374789,0.513022 -0.560547,0.826172 -0.185757,0.313152 -0.354127,0.638724 -0.457031,0.908203 -0.05145,0.134737 -0.08629,0.255804 -0.09766,0.359375 -0.01134,0.103421 -0.0024,0.206252 0.08008,0.267578 0.04552,0.03372 0.108698,0.02421 0.144531,0.0059 0.03594,-0.01841 0.06476,-0.04419 0.0957,-0.07617 0.06188,-0.06396 0.12968,-0.155778 0.205078,-0.269532 0.150797,-0.227512 0.327588,-0.541624 0.496094,-0.863281 0.168509,-0.321657 0.327242,-0.6507 0.439453,-0.90625 0.0561,-0.127775 0.100402,-0.235186 0.128907,-0.318359 0.01426,-0.04159 0.02522,-0.07641 0.03125,-0.107422 0.003,-0.01552 0.0062,-0.03103 0.0059,-0.04883 -4.42e-4,-0.01779 5.04e-4,-0.04471 -0.03125,-0.07617 l -0.0039,-0.002 -0.002,-0.0039 c -0.02205,-0.01824 -0.04899,-0.02439 -0.07422,-0.02539 z"
       transform="matrix(4.5245092,0,0,4.5245092,-38.994423,274.23691)" />
  </g>
  <g
     id="path18-2"
     transform="matrix(0.30515812,0,0,0.30515812,-19.950194,-92.23216)"
     style="display:inline;fill:#f1f3f5;fill-opacity:1;stroke:none;stroke-width:0.60822;enable-background:new">
    <path
       id="path7715"
       style="color:#000000;fill:#f1f3f5;fill-opacity:1;fill-rule:evenodd;stroke-width:0.0806567pt;-inkscape-stroke:none"
       d="m 77.755859,18.160156 c -0.01094,0.0012 -0.02133,0.0043 -0.0293,0.0078 -0.03186,0.01375 -0.04171,0.028 -0.05078,0.04102 -0.01815,0.02604 -0.02833,0.05219 -0.04102,0.08594 -0.02537,0.06749 -0.05238,0.163529 -0.08203,0.28125 -0.05931,0.235446 -0.125504,0.558247 -0.18164,0.888672 -0.05614,0.330425 -0.102419,0.667417 -0.119141,0.933594 -0.0084,0.133088 -0.0095,0.248364 0,0.339843 0.0047,0.04574 0.01206,0.08448 0.02539,0.121094 0.01258,0.03451 0.03456,0.07038 0.07617,0.09375 0.01949,0.01202 0.04293,0.02341 0.06836,0.02148 0.02906,-0.0022 0.0519,-0.01627 0.06836,-0.0293 0.03292,-0.02607 0.05096,-0.05517 0.06836,-0.08984 0.0348,-0.06934 0.06324,-0.162049 0.09375,-0.279297 0.06101,-0.234496 0.119869,-0.558611 0.166015,-0.890625 0.04615,-0.332014 0.08124,-0.672051 0.0918,-0.941406 0.0053,-0.134676 0.0044,-0.249988 -0.0039,-0.341797 -0.0042,-0.0459 -0.01143,-0.0857 -0.02148,-0.121094 -0.0093,-0.03285 -0.02189,-0.06484 -0.05664,-0.09375 -0.01014,-0.0095 -0.02119,-0.02071 -0.03906,-0.02539 -0.0113,-0.003 -0.02226,-0.0031 -0.0332,-0.002 z"
       transform="matrix(4.5245092,0,0,4.5245092,-30.962325,275.78153)" />
  </g>
  <circle
     style="display:inline;fill:#c02700;fill-opacity:1;stroke-width:1;stroke-linecap:round;stroke-linejoin:round;enable-background:new"
     id="circle2470"
     cx="100"
     cy="26.5"
     r="5.5" />
  <circle
     style="display:inline;fill:#f1f3f5;fill-opacity:1;stroke-width:1;stroke-linecap:round;stroke-linejoin:round;enable-background:new"
     id="circle2472"
     cx="100"
     cy="25.5"
     r="5.5" />
  <rect
     style="opacity:1;fill:#bcc5ca;fill-opacity:1;stroke-width:0.999991;stroke-linecap:round;stroke-linejoin:round"
     id="rect888"
     width="6"
     height="20"
     x="25"
     y="9"
     ry="2"
     rx="2" />
  <rect
     style="opacity:1;fill:#bcc5ca;fill-opacity:1;stroke-width:0.999991;stroke-linecap:round;stroke-linejoin:round"
     id="rect8041"
     width="6"
     height="20"
     x="97"
     y="9"
     rx="2"
     ry="2" />
  <rect
     style="fill:#d2d8dc;fill-opacity:1;stroke-width:0.5;stroke-linecap:round;stroke-linejoin:round"
     id="rect1067"
     width="100"
     height="1"
     x="14"
     y="110" />
</svg>
