<?xml version="1.0" encoding="UTF-8" standalone="no"?>
<svg
   width="32"
   height="32"
   id="svg11300"
   version="1.0"
   style="display:inline;enable-background:new"
   viewBox="0 0 32 32"
   sodipodi:docname="org.xfce.orage.svg"
   inkscape:version="1.1.1 (3bf5ae0d25, 2021-09-20)"
   inkscape:export-filename="org.xfce.orage.png"
   inkscape:export-xdpi="96"
   inkscape:export-ydpi="96"
   xmlns:inkscape="http://www.inkscape.org/namespaces/inkscape"
   xmlns:sodipodi="http://sodipodi.sourceforge.net/DTD/sodipodi-0.dtd"
   xmlns="http://www.w3.org/2000/svg"
   xmlns:svg="http://www.w3.org/2000/svg"
   xmlns:rdf="http://www.w3.org/1999/02/22-rdf-syntax-ns#"
   xmlns:cc="http://creativecommons.org/ns#"
   xmlns:dc="http://purl.org/dc/elements/1.1/">
  <sodipodi:namedview
     pagecolor="#ffffff"
     bordercolor="#666666"
     borderopacity="1"
     objecttolerance="10"
     gridtolerance="10"
     guidetolerance="10"
     inkscape:pageopacity="0"
     inkscape:pageshadow="2"
     inkscape:window-width="1385"
     inkscape:window-height="813"
     id="namedview44"
     showgrid="false"
     inkscape:zoom="10.760506"
     inkscape:cx="14.079264"
     inkscape:cy="18.818818"
     inkscape:window-x="467"
     inkscape:window-y="213"
     inkscape:window-maximized="0"
     inkscape:current-layer="svg11300"
     inkscape:lockguides="false"
     showguides="true"
     inkscape:guide-bbox="true"
     inkscape:pagecheckerboard="0"
     inkscape:snap-center="true"
     inkscape:snap-object-midpoints="true"
     width="32px">
    <inkscape:grid
       type="xygrid"
       id="grid4761"
       empspacing="4" />
  </sodipodi:namedview>
  <title
     id="title4162">Adwaita Icon Template</title>
  <defs
     id="defs3">
    <linearGradient
       id="linearGradient1020"
       inkscape:swatch="gradient">
      <stop
         style="stop-color:#ffffff;stop-opacity:1;"
         offset="0"
         id="stop1016" />
      <stop
         style="stop-color:#ffffff;stop-opacity:0.09411765"
         offset="1"
         id="stop1018" />
    </linearGradient>
  </defs>
  <metadata
     id="metadata4">
    <rdf:RDF>
      <cc:Work
         rdf:about="">
        <dc:title>Adwaita Icon Template</dc:title>
      </cc:Work>
    </rdf:RDF>
  </metadata>
  <rect
     style="display:inline;opacity:1;fill:#e6461d;fill-opacity:1;stroke:none;stroke-width:0.25;stroke-linecap:butt;stroke-linejoin:miter;stroke-miterlimit:4;stroke-dasharray:none;stroke-dashoffset:0;stroke-opacity:1;marker:none;marker-start:none;marker-mid:none;marker-end:none;paint-order:normal;enable-background:new"
     id="rect905"
     width="30"
     height="26"
     x="1"
     y="5"
     rx="3"
     ry="3" />
  <rect
     style="display:inline;opacity:1;fill:#d2d8dc;fill-opacity:1;stroke:none;stroke-width:0.25;stroke-linecap:butt;stroke-linejoin:miter;stroke-miterlimit:4;stroke-dasharray:none;stroke-dashoffset:0;stroke-opacity:1;marker:none;marker-start:none;marker-mid:none;marker-end:none;paint-order:normal;enable-background:new"
     id="rect879"
     width="30"
     height="26"
     x="1"
     y="4"
     rx="3"
     ry="3" />
  <rect
     ry="2"
     rx="2"
     y="5"
     x="2"
     height="24"
     width="28"
     id="rect1711"
     style="display:inline;opacity:1;fill:#f1f3f5;fill-opacity:1;stroke:none;stroke-width:0.25;stroke-linecap:butt;stroke-linejoin:miter;stroke-miterlimit:4;stroke-dasharray:none;stroke-dashoffset:0;stroke-opacity:1;marker:none;marker-start:none;marker-mid:none;marker-end:none;paint-order:normal;enable-background:new" />
  <rect
     style="opacity:1;fill:#e6461d;fill-opacity:1;stroke-width:0.999995;stroke-linecap:round;stroke-linejoin:round"
     id="rect874"
     width="30"
     height="7"
     x="1"
     y="2"
     rx="3"
     ry="3" />
  <rect
     style="opacity:1;fill:#e6461d;fill-opacity:1;stroke-width:0.999997;stroke-linecap:round;stroke-linejoin:round"
     id="rect1106"
     width="30"
     height="4"
     x="1"
     y="5" />
  <rect
     style="opacity:1;fill:#c02700;fill-opacity:1;stroke-width:0.999994;stroke-linecap:round;stroke-linejoin:round"
     id="rect15096"
     width="30"
     height="1"
     x="1"
     y="7.9999971" />
  <circle
     style="display:inline;fill:#f1f3f5;fill-opacity:1;stroke-width:0.999997;stroke-linecap:round;stroke-linejoin:round;enable-background:new"
     id="path2530"
     cx="6"
     cy="5.5"
     r="2" />
  <rect
     style="opacity:1;fill:#d2d8dc;fill-opacity:1;stroke-width:1;stroke-linecap:round;stroke-linejoin:round"
     id="rect25256"
     width="4"
     height="4"
     x="4"
     y="12" />
  <g
     id="g895"
     style="display:inline;fill:#f1f3f5;fill-opacity:1;stroke:none;stroke-width:0.839763;enable-background:new"
     transform="matrix(0.22101845,0,0,0.22101845,8.618487,-60.611416)" />
  <g
     id="g901"
     transform="matrix(0.06216144,0,0,0.06216144,-0.0753373,-19.11175)"
     style="display:inline;fill:#f1f3f5;fill-opacity:1;stroke:none;stroke-width:2.98583;enable-background:new">
    <path
       id="path899"
       style="color:#000000;fill:#c02700;fill-opacity:1;fill-rule:evenodd;stroke-width:2.5074;-inkscape-stroke:none"
       d="m 152.89825,352.71183 -0.10524,0.0109 -0.10524,0.0528 c -0.12953,0.0709 -0.27228,0.21523 -0.34725,0.38938 -0.075,0.17415 -0.0684,0.35346 -0.0421,0.48405 0.0528,0.26124 0.15591,0.39128 0.2736,0.53669 0.23541,0.29083 0.56904,0.58462 1.03126,0.93655 0.92441,0.70386 2.35795,1.62008 4.30395,2.72548 3.89199,2.21082 9.80919,5.14267 17.51047,8.31327 7.59603,3.12706 16.71886,8.69303 23.69807,13.78529 3.4896,2.54612 6.45233,4.97739 8.40797,6.90316 0.97782,0.96289 1.70118,1.80632 2.10463,2.43085 0.2017,0.31228 0.31811,0.5733 0.35779,0.72609 0.0398,0.1528 0.007,0.14456 0.0317,0.10524 l 0.0208,-0.0208 c -5.06204,7.12978 -8.0568,15.7792 -6.0087,30.29606 v 0.0109 c 0.0394,0.27238 -0.23423,0.91341 -0.87342,1.69423 -0.63922,0.78082 -1.56057,1.67631 -2.49398,2.63078 -0.9334,0.95447 -1.8799,1.96082 -2.57817,3.02013 -0.69826,1.05933 -1.16823,2.21438 -0.98917,3.4095 v 0.0109 c 0.0878,0.53339 0.4496,1.00761 0.90499,1.21016 0.45538,0.20256 0.93376,0.20351 1.43114,0.13677 0.99477,-0.13347 2.11985,-0.57584 3.26217,-1.0523 1.14231,-0.47645 2.28398,-0.99481 3.15694,-1.31539 0.39775,-0.14605 0.71834,-0.23346 0.94708,-0.2736 -0.002,0.15139 0.019,0.22071 -0.0208,0.46303 -0.0729,0.4406 -0.21315,0.99661 -0.38938,1.62057 -0.35237,1.2479 -0.85837,2.75952 -1.32592,4.24081 -0.46756,1.4813 -0.89596,2.93078 -1.08389,4.11454 -0.094,0.59188 -0.13044,1.11698 -0.0528,1.59952 0.0778,0.48253 0.34341,1.01581 0.87342,1.21016 l 0.0208,0.0109 0.0208,0.0109 c 0.3673,0.10918 0.60457,0.009 0.84185,-0.0841 0.23726,-0.0932 0.47741,-0.23387 0.74714,-0.39988 0.53941,-0.33196 1.18414,-0.80313 1.91521,-1.37853 1.46214,-1.15081 3.25955,-2.70107 5.03006,-4.26186 1.77048,-1.56079 3.50982,-3.12826 4.85115,-4.28291 0.67066,-0.57733 1.24221,-1.05585 1.65213,-1.36801 0.19645,-0.14962 0.35327,-0.25527 0.45247,-0.31567 10.80049,3.21859 23.10231,3.61542 32.81109,3.17798 4.88864,-0.22025 9.11915,-0.65324 12.16473,-1.0418 1.52279,-0.19428 2.74328,-0.37331 3.60943,-0.51561 0.43309,-0.0712 0.78405,-0.13184 1.03127,-0.17885 0.098,-0.019 0.16238,-0.0385 0.23152,-0.0528 v 0.0109 c 0.13958,0.0612 0.35748,0.14949 0.63139,0.2736 0.54784,0.24821 1.33841,0.60905 2.29403,1.04178 1.91129,0.86546 4.4813,2.02421 7.11364,3.14641 2.63234,1.12224 5.31884,2.21171 7.48194,2.95701 1.08154,0.37264 2.03281,0.65852 2.79915,0.8208 0.38318,0.0811 0.72378,0.12768 1.03126,0.13677 0.30749,0.009 0.59491,0.0104 0.91551,-0.19994 l 0.0737,-0.0421 0.0528,-0.0632 c 1.26582,-1.37074 1.32,-3.06222 0.71558,-4.5565 -0.60442,-1.49429 -1.772,-2.90231 -2.97805,-4.2303 -1.20602,-1.32798 -2.45907,-2.57661 -3.24112,-3.59891 -0.39101,-0.51114 -0.66103,-0.9656 -0.75766,-1.28381 -0.0853,-0.28088 -0.0458,-0.38445 0.0421,-0.51562 0.0773,-0.009 0.19143,-0.0163 0.36829,0 0.42033,0.0385 1.04888,0.16152 1.78894,0.3578 1.48011,0.39254 3.40957,1.04703 5.34575,1.6837 1.93617,0.63668 3.87309,1.26011 5.40888,1.62056 0.7679,0.18021 1.43499,0.29862 1.99939,0.30518 0.2822,0.003 0.53615,-0.0122 0.79976,-0.10524 0.26364,-0.0928 0.56632,-0.30622 0.69452,-0.6314 l 0.0109,-0.0208 v -0.0208 c 0.36214,-1.09292 -0.0385,-2.25933 -0.68399,-3.43054 -0.64571,-1.17121 -1.58504,-2.37649 -2.5887,-3.54629 -1.00365,-1.16982 -2.07515,-2.29447 -2.95699,-3.24113 -0.87876,-0.94334 -1.58376,-1.75765 -1.79946,-2.11514 -0.4462,-0.79208 -0.72508,-1.85062 -0.59981,-2.87282 0.12551,-1.02433 0.61584,-2.0128 1.78892,-2.83072 0.23093,-0.16093 0.95709,-0.54059 1.93626,-1.01021 0.97918,-0.46961 2.24236,-1.061 3.68309,-1.73631 2.88146,-1.35062 6.47209,-3.06407 9.95487,-4.97744 3.48279,-1.91339 6.85022,-4.01357 9.32349,-6.1876 2.47191,-2.17285 4.15418,-4.46492 3.81989,-6.84003 -0.52041,-3.86081 -3.07204,-6.80004 -6.47172,-9.00779 -3.39966,-2.20774 -7.67195,-3.74182 -11.89113,-4.85116 -4.21916,-1.10933 -8.38356,-1.78616 -11.51229,-2.27299 -1.56436,-0.24342 -2.87473,-0.44341 -3.78832,-0.61034 -0.45678,-0.0835 -0.80995,-0.16687 -1.03126,-0.23152 h -0.0109 c -0.002,-0.16148 -0.002,-0.36318 0,-0.63139 0.004,-0.59602 0.0131,-1.41402 0,-2.37822 -0.0253,-1.92842 -0.13266,-4.42037 -0.53668,-6.79794 -0.40404,-2.37757 -1.07639,-4.6558 -2.38876,-6.19812 -1.31094,-1.54064 -3.39418,-2.1879 -5.92451,-1.18911 -1.67213,0.62549 -2.61279,2.07232 -3.00961,3.7357 -0.39744,1.66576 -0.32088,3.59446 -0.0632,5.48255 0.25777,1.8881 0.70655,3.73341 1.11545,5.21947 0.40888,1.48605 0.78433,2.66579 0.85237,2.96752 0.0425,0.18799 0.0403,0.13112 -0.0317,0.18944 -0.072,0.0583 -0.30513,0.15302 -0.59982,0.1789 -0.29473,0.0258 -0.63603,-0.007 -0.90499,-0.0737 -0.26898,-0.0668 -0.45791,-0.21346 -0.42096,-0.16835 -0.0566,-0.0691 -0.27427,-0.43585 -0.5051,-0.92604 -0.23084,-0.49019 -0.49639,-1.11648 -0.81028,-1.83102 -0.62779,-1.42908 -1.40485,-3.19153 -2.30457,-4.84064 -0.89971,-1.64911 -1.91355,-3.19299 -3.09379,-4.23029 -0.59014,-0.51863 -1.23654,-0.9096 -1.94679,-1.08388 -0.71024,-0.17424 -1.48453,-0.10995 -2.20985,0.25251 l -0.0109,0.0109 -0.0109,0.0109 c -1.84272,1.01599 -2.83721,2.63389 -3.24112,4.37762 -0.40395,1.74372 -0.26219,3.61338 0.0317,5.35626 0.29373,1.7429 0.74789,3.3621 1.0418,4.53547 0.14691,0.58668 0.24939,1.07051 0.27359,1.34695 0.009,0.0917 0.002,0.10886 0,0.13683 -1.31513,0.82149 -1.98182,2.11558 -2.49397,3.45159 -0.53658,1.39967 -0.97864,2.86531 -1.89417,4.13559 h -0.0108 c -0.27709,0.39707 -0.86251,0.76155 -1.77841,0.99968 -0.91591,0.23813 -2.12529,0.35468 -3.53578,0.3578 -2.82097,0.006 -6.4291,-0.43408 -10.18637,-1.03127 -7.51455,-1.19432 -15.58868,-3.04412 -19.70981,-3.29373 -3.10013,-0.18302 -6.03658,0.97922 -8.26064,2.07306 -1.11204,0.54691 -2.05095,1.08616 -2.71497,1.43114 -0.30825,0.16012 -0.54586,0.26143 -0.69452,0.31568 -7.18922,-7.1638 -21.73014,-19.38274 -37.86219,-23.50866 -4.42291,-1.20028 -10.006,-3.56433 -14.53244,-5.61935 -2.26321,-1.02751 -4.26096,-1.98348 -5.73509,-2.67287 -0.73706,-0.34473 -1.34133,-0.6154 -1.78894,-0.81028 -0.22382,-0.0974 -0.40458,-0.17555 -0.55772,-0.23152 -0.0766,-0.0281 -0.14578,-0.054 -0.22102,-0.0737 -0.0752,-0.0199 -0.12108,-0.0625 -0.3683,-0.0208 z"
       sodipodi:nodetypes="cccscssscssscccccsssccsssscccsscccccssssscssscccsssssccccssssccsssccccccsscsssssscssssccccsscscscscccssssscccscsccsccscccssccssccccc" />
  </g>
  <g
     id="g7021"
     style="display:inline;fill:#c02700;fill-opacity:1;stroke:none;stroke-width:2.20449;enable-background:new"
     transform="matrix(0.08419314,0,0,0.08419314,-6.3500918,-26.929654)">
    <path
       id="path7019"
       style="color:#000000;fill:#c02700;fill-opacity:1;fill-rule:evenodd;stroke-width:0.29234pt;-inkscape-stroke:none"
       d="m 79.529297,18.498047 c -0.02523,-0.001 -0.04972,0.0041 -0.06836,0.01172 -0.03728,0.01516 -0.06734,0.03721 -0.101563,0.06641 -0.06844,0.05838 -0.144957,0.144781 -0.230469,0.251953 -0.171024,0.214346 -0.374789,0.513022 -0.560547,0.826172 -0.185757,0.313152 -0.354127,0.638724 -0.457031,0.908203 -0.05145,0.134737 -0.08629,0.255804 -0.09766,0.359375 -0.01134,0.103421 -0.0024,0.206252 0.08008,0.267578 0.04552,0.03372 0.108698,0.02421 0.144531,0.0059 0.03594,-0.01841 0.06476,-0.04419 0.0957,-0.07617 0.06188,-0.06396 0.12968,-0.155778 0.205078,-0.269532 0.150797,-0.227512 0.327588,-0.541624 0.496094,-0.863281 0.168509,-0.321657 0.327242,-0.6507 0.439453,-0.90625 0.0561,-0.127775 0.100402,-0.235186 0.128907,-0.318359 0.01426,-0.04159 0.02522,-0.07641 0.03125,-0.107422 0.003,-0.01552 0.0062,-0.03103 0.0059,-0.04883 -4.42e-4,-0.01779 5.04e-4,-0.04471 -0.03125,-0.07617 l -0.0039,-0.002 -0.002,-0.0039 c -0.02205,-0.01824 -0.04899,-0.02439 -0.07422,-0.02539 z"
       transform="matrix(4.5245092,0,0,4.5245092,-38.994423,274.23691)" />
  </g>
  <g
     id="g7025"
     transform="matrix(0.08419314,0,0,0.08419314,-7.0263394,-27.059701)"
     style="display:inline;fill:#c02700;fill-opacity:1;stroke:none;stroke-width:2.20449;enable-background:new">
    <path
       id="path7023"
       style="color:#000000;fill:#c02700;fill-opacity:1;fill-rule:evenodd;stroke-width:0.29234pt;-inkscape-stroke:none"
       d="m 77.755859,18.160156 c -0.01094,0.0012 -0.02133,0.0043 -0.0293,0.0078 -0.03186,0.01375 -0.04171,0.028 -0.05078,0.04102 -0.01815,0.02604 -0.02833,0.05219 -0.04102,0.08594 -0.02537,0.06749 -0.05238,0.163529 -0.08203,0.28125 -0.05931,0.235446 -0.125504,0.558247 -0.18164,0.888672 -0.05614,0.330425 -0.102419,0.667417 -0.119141,0.933594 -0.0084,0.133088 -0.0095,0.248364 0,0.339843 0.0047,0.04574 0.01206,0.08448 0.02539,0.121094 0.01258,0.03451 0.03456,0.07038 0.07617,0.09375 0.01949,0.01202 0.04293,0.02341 0.06836,0.02148 0.02906,-0.0022 0.0519,-0.01627 0.06836,-0.0293 0.03292,-0.02607 0.05096,-0.05517 0.06836,-0.08984 0.0348,-0.06934 0.06324,-0.162049 0.09375,-0.279297 0.06101,-0.234496 0.119869,-0.558611 0.166015,-0.890625 0.04615,-0.332014 0.08124,-0.672051 0.0918,-0.941406 0.0053,-0.134676 0.0044,-0.249988 -0.0039,-0.341797 -0.0042,-0.0459 -0.01143,-0.0857 -0.02148,-0.121094 -0.0093,-0.03285 -0.02189,-0.06484 -0.05664,-0.09375 -0.01014,-0.0095 -0.02119,-0.02071 -0.03906,-0.02539 -0.0113,-0.003 -0.02226,-0.0031 -0.0332,-0.002 z"
       transform="matrix(4.5245092,0,0,4.5245092,-30.962325,275.78153)" />
  </g>
  <path
     id="path7721"
     style="color:#000000;display:inline;fill:#f1f3f5;fill-opacity:1;fill-rule:evenodd;stroke:none;stroke-width:0.18521pt;-inkscape-stroke:none;enable-background:new"
     d="m 9.429038,2.2508454 -0.0065,6.749e-4 -0.0065,0.00326 c -0.008,0.00439 -0.01693,0.013382 -0.02159,0.024205 -0.0046,0.010823 -0.0043,0.021971 -0.0025,0.030088 0.0032,0.01624 0.0097,0.024323 0.01701,0.033362 0.01463,0.018079 0.03537,0.036343 0.0641,0.058217 0.05747,0.043751 0.146574,0.1007066 0.267541,0.1694205 0.241931,0.1374271 0.609753,0.3196755 1.088475,0.5167642 0.47218,0.1943826 1.039269,0.5403713 1.473106,0.8569137 0.216919,0.1582706 0.401086,0.309402 0.522651,0.4291105 0.06078,0.059854 0.105748,0.1122834 0.130827,0.1511049 0.01254,0.019411 0.01977,0.035634 0.02224,0.045135 0.0025,0.0095 4.22e-4,0.00899 0.002,0.00654 l 0.0013,-0.0013 c -0.314841,0.4432023 -0.500999,0.9808623 -0.373686,1.8832511 v 6.75e-4 c 0.0024,0.016928 -0.01456,0.056783 -0.05429,0.1053157 -0.03974,0.04854 -0.09701,0.104202 -0.155029,0.1635335 -0.05802,0.05933 -0.116857,0.121888 -0.160263,0.187737 -0.0434,0.06585 -0.07262,0.137648 -0.06149,0.211938 v 6.75e-4 c 0.0055,0.03315 0.02795,0.06263 0.05626,0.07522 0.02831,0.01259 0.05804,0.01265 0.08896,0.0085 0.06184,-0.0083 0.131773,-0.0358 0.20278,-0.06541 0.07101,-0.02962 0.141976,-0.06184 0.19624,-0.08177 0.02472,-0.0091 0.04466,-0.01451 0.05888,-0.017 -1.04e-4,0.0094 0.0012,0.01372 -0.0013,0.02879 -0.0046,0.02739 -0.01325,0.06195 -0.0242,0.100737 -0.0219,0.07757 -0.05335,0.171536 -0.08242,0.263616 -0.02906,0.09208 -0.0557,0.182181 -0.06737,0.255765 -0.0059,0.03679 -0.0081,0.06944 -0.0033,0.09943 0.0049,0.02999 0.02135,0.06314 0.05429,0.07522 l 0.0013,6.75e-4 0.0013,6.75e-4 c 0.02283,0.0067 0.03758,5.34e-4 0.05233,-0.0053 0.01475,-0.0058 0.02968,-0.01454 0.04645,-0.02486 0.03353,-0.02063 0.07361,-0.04992 0.119052,-0.08569 0.09089,-0.07154 0.202619,-0.167902 0.312676,-0.264923 0.110055,-0.09702 0.218176,-0.194457 0.301555,-0.266232 0.04169,-0.03589 0.07722,-0.06563 0.102698,-0.08504 0.01221,-0.0093 0.02196,-0.01587 0.02813,-0.01962 0.671374,0.200073 1.436072,0.22474 2.039585,0.197548 0.303884,-0.01369 0.566858,-0.0406 0.756176,-0.06476 0.09466,-0.01208 0.170526,-0.02321 0.224367,-0.03205 0.02692,-0.0044 0.04874,-0.0082 0.0641,-0.01112 0.0061,-0.0012 0.01009,-0.0023 0.01439,-0.0033 0,0 0,6.75e-4 0,6.75e-4 0.0087,0.0038 0.02222,0.0093 0.03925,0.017 0.03406,0.01543 0.0832,0.03786 0.1426,0.06475 0.118809,0.0538 0.278564,0.125828 0.442194,0.195586 0.16363,0.06976 0.330627,0.137482 0.465088,0.183811 0.06723,0.02316 0.126363,0.04093 0.173999,0.05102 0.02381,0.005 0.04499,0.0079 0.0641,0.0085 0.01912,5.62e-4 0.03698,6.19e-4 0.05691,-0.01243 l 0.0046,-0.0026 0.0032,-0.004 c 0.07869,-0.08521 0.08205,-0.190352 0.04448,-0.283238 -0.03757,-0.09289 -0.110149,-0.180412 -0.185119,-0.262962 -0.07497,-0.08255 -0.152859,-0.160165 -0.201473,-0.223713 -0.02431,-0.03178 -0.04109,-0.06002 -0.0471,-0.0798 -0.0053,-0.01746 -0.0028,-0.02389 0.0026,-0.03205 0.0048,-5.34e-4 0.0119,-9.75e-4 0.0229,0 0.02613,0.0024 0.0652,0.01004 0.111203,0.02224 0.09201,0.0244 0.211944,0.06508 0.332299,0.104661 0.120356,0.03958 0.240757,0.07833 0.336224,0.100737 0.04773,0.0112 0.0892,0.01856 0.124285,0.01897 0.01754,2.09e-4 0.03333,-7.31e-4 0.04971,-0.0065 0.01639,-0.0058 0.03521,-0.01904 0.04317,-0.03925 l 6.75e-4,-0.0013 v -0.0013 c 0.02251,-0.06794 -0.0024,-0.140444 -0.04252,-0.213247 -0.04014,-0.0728 -0.09853,-0.147726 -0.160917,-0.220443 -0.06238,-0.07272 -0.128995,-0.1426275 -0.183811,-0.2014725 -0.05462,-0.058642 -0.09845,-0.1092585 -0.111857,-0.131481 -0.02773,-0.049238 -0.04508,-0.1150372 -0.03729,-0.178578 0.0078,-0.063675 0.03829,-0.125118 0.111202,-0.1759612 0.01435,-0.01 0.0595,-0.033608 0.12036,-0.062798 0.06087,-0.029197 0.139389,-0.065955 0.228947,-0.1079318 0.179115,-0.083956 0.402314,-0.190467 0.618809,-0.309405 C 19.504574,5.3052164 19.713897,5.1746654 19.86764,5.0395252 20.021297,4.9044577 20.125869,4.761979 20.10509,4.6143385 20.072744,4.3743695 19.914131,4.1916627 19.702802,4.0544251 19.491474,3.9171891 19.225903,3.8218285 18.963633,3.7528705 18.701363,3.6839125 18.442498,3.6418404 18.248012,3.6115779 c -0.09724,-0.015131 -0.178698,-0.027563 -0.235488,-0.037941 -0.02839,-0.00517 -0.05035,-0.010372 -0.0641,-0.014389 0,0 -6.75e-4,0 -6.75e-4,0 -1.04e-4,-0.010041 -1.04e-4,-0.022579 0,-0.039246 2.61e-4,-0.037052 7.5e-4,-0.087897 0,-0.147834 -0.0016,-0.1198732 -0.0083,-0.2747767 -0.03336,-0.4225697 -0.02512,-0.147793 -0.06691,-0.2894113 -0.148489,-0.3852838 -0.08149,-0.095769 -0.210988,-0.1360029 -0.368276,-0.073917 -0.103942,0.03888 -0.162415,0.1288183 -0.187082,0.2322169 -0.02471,0.1035456 -0.01995,0.2234369 -0.004,0.340803 0.01602,0.1173668 0.04392,0.232074 0.06934,0.3244501 0.02541,0.092375 0.04876,0.1657091 0.05298,0.1844651 0.0026,0.011689 0.0025,0.00815 -0.002,0.011779 -0.0045,0.0036 -0.01897,0.00951 -0.03729,0.01112 -0.01832,0.00163 -0.03954,-4.218e-4 -0.05626,-0.00455 -0.01672,-0.00416 -0.02846,-0.01327 -0.02617,-0.010463 -0.0035,-0.00428 -0.01705,-0.027096 -0.0314,-0.057563 -0.01425,-0.030475 -0.03075,-0.069407 -0.05027,-0.113824 -0.03903,-0.088834 -0.08733,-0.1983904 -0.143256,-0.3009016 -0.05593,-0.1025105 -0.118949,-0.1984804 -0.192315,-0.2629608 -0.03669,-0.032237 -0.07687,-0.056542 -0.121014,-0.067376 -0.04415,-0.010828 -0.09228,-0.00683 -0.137368,0.015699 l -6.75e-4,6.75e-4 -6.75e-4,6.75e-4 c -0.114546,0.063155 -0.176365,0.1637269 -0.201473,0.2721195 -0.02511,0.1083921 -0.0163,0.2246125 0.002,0.3329527 0.01826,0.1083409 0.04649,0.208993 0.06476,0.2819313 0.0091,0.036467 0.0155,0.066545 0.01701,0.083729 5.34e-4,0.0057 1.04e-4,0.00676 0,0.0085 -0.08175,0.051064 -0.123194,0.131508 -0.15503,0.2145561 -0.03335,0.087006 -0.06083,0.1781117 -0.117744,0.2570743 h -6.75e-4 c -0.01722,0.024682 -0.05361,0.04734 -0.110547,0.062141 -0.05693,0.014805 -0.132111,0.02205 -0.219789,0.022241 -0.175356,3.656e-4 -0.399643,-0.026983 -0.6332,-0.064106 -0.4671,-0.07424 -0.968999,-0.1892257 -1.225174,-0.2047418 -0.192709,-0.011374 -0.375243,0.060869 -0.513494,0.1288643 -0.06913,0.033997 -0.12749,0.067516 -0.168766,0.088962 -0.01916,0.00995 -0.03393,0.01625 -0.04317,0.019625 C 12.777939,3.8531851 11.874054,3.0936379 10.871262,2.8371649 10.596328,2.7625538 10.249275,2.6156013 9.967905,2.487858 9.82722,2.4239862 9.703038,2.364562 9.611403,2.3217085 9.565593,2.3002775 9.528023,2.2834525 9.500201,2.2713425 c -0.01391,-0.00606 -0.02515,-0.010912 -0.03467,-0.014394 -0.0048,-0.00174 -0.0091,-0.00338 -0.01374,-0.00456 -0.0046,-0.00124 -0.0075,-0.00388 -0.0229,-0.00129 z" />
  <g
     id="path13-0"
     style="display:inline;fill:#f1f3f5;fill-opacity:1;stroke:none;stroke-width:2.16256;enable-background:new"
     transform="matrix(0.08582572,0,0,0.08582572,-6.9216315,-27.776499)">
    <path
       id="path7709"
       style="color:#000000;fill:#f1f3f5;fill-opacity:1;fill-rule:evenodd;stroke-width:0.286779pt;-inkscape-stroke:none"
       d="m 79.529297,18.498047 c -0.02523,-0.001 -0.04972,0.0041 -0.06836,0.01172 -0.03728,0.01516 -0.06734,0.03721 -0.101563,0.06641 -0.06844,0.05838 -0.144957,0.144781 -0.230469,0.251953 -0.171024,0.214346 -0.374789,0.513022 -0.560547,0.826172 -0.185757,0.313152 -0.354127,0.638724 -0.457031,0.908203 -0.05145,0.134737 -0.08629,0.255804 -0.09766,0.359375 -0.01134,0.103421 -0.0024,0.206252 0.08008,0.267578 0.04552,0.03372 0.108698,0.02421 0.144531,0.0059 0.03594,-0.01841 0.06476,-0.04419 0.0957,-0.07617 0.06188,-0.06396 0.12968,-0.155778 0.205078,-0.269532 0.150797,-0.227512 0.327588,-0.541624 0.496094,-0.863281 0.168509,-0.321657 0.327242,-0.6507 0.439453,-0.90625 0.0561,-0.127775 0.100402,-0.235186 0.128907,-0.318359 0.01426,-0.04159 0.02522,-0.07641 0.03125,-0.107422 0.003,-0.01552 0.0062,-0.03103 0.0059,-0.04883 -4.42e-4,-0.01779 5.04e-4,-0.04471 -0.03125,-0.07617 l -0.0039,-0.002 -0.002,-0.0039 c -0.02205,-0.01824 -0.04899,-0.02439 -0.07422,-0.02539 z"
       transform="matrix(4.5245092,0,0,4.5245092,-38.994423,274.23691)" />
  </g>
  <g
     id="path18-2"
     transform="matrix(0.08582572,0,0,0.08582572,-7.6109921,-27.909068)"
     style="display:inline;fill:#f1f3f5;fill-opacity:1;stroke:none;stroke-width:2.16256;enable-background:new">
    <path
       id="path7715"
       style="color:#000000;fill:#f1f3f5;fill-opacity:1;fill-rule:evenodd;stroke-width:0.286779pt;-inkscape-stroke:none"
       d="m 77.755859,18.160156 c -0.01094,0.0012 -0.02133,0.0043 -0.0293,0.0078 -0.03186,0.01375 -0.04171,0.028 -0.05078,0.04102 -0.01815,0.02604 -0.02833,0.05219 -0.04102,0.08594 -0.02537,0.06749 -0.05238,0.163529 -0.08203,0.28125 -0.05931,0.235446 -0.125504,0.558247 -0.18164,0.888672 -0.05614,0.330425 -0.102419,0.667417 -0.119141,0.933594 -0.0084,0.133088 -0.0095,0.248364 0,0.339843 0.0047,0.04574 0.01206,0.08448 0.02539,0.121094 0.01258,0.03451 0.03456,0.07038 0.07617,0.09375 0.01949,0.01202 0.04293,0.02341 0.06836,0.02148 0.02906,-0.0022 0.0519,-0.01627 0.06836,-0.0293 0.03292,-0.02607 0.05096,-0.05517 0.06836,-0.08984 0.0348,-0.06934 0.06324,-0.162049 0.09375,-0.279297 0.06101,-0.234496 0.119869,-0.558611 0.166015,-0.890625 0.04615,-0.332014 0.08124,-0.672051 0.0918,-0.941406 0.0053,-0.134676 0.0044,-0.249988 -0.0039,-0.341797 -0.0042,-0.0459 -0.01143,-0.0857 -0.02148,-0.121094 -0.0093,-0.03285 -0.02189,-0.06484 -0.05664,-0.09375 -0.01014,-0.0095 -0.02119,-0.02071 -0.03906,-0.02539 -0.0113,-0.003 -0.02226,-0.0031 -0.0332,-0.002 z"
       transform="matrix(4.5245092,0,0,4.5245092,-30.962325,275.78153)" />
  </g>
  <rect
     style="opacity:1;fill:#bcc5ca;fill-opacity:1;stroke-width:0.999988;stroke-linecap:round;stroke-linejoin:round"
     id="rect888"
     width="2"
     height="6"
     x="5"
     y="0"
     ry="0.375"
     rx="0.33333334" />
  <rect
     style="opacity:1;fill:#bcc5ca;fill-opacity:1;stroke-width:1;stroke-linecap:round;stroke-linejoin:round"
     id="rect3079"
     width="4"
     height="4"
     x="9"
     y="12" />
  <circle
     style="display:inline;fill:#f1f3f5;fill-opacity:1;stroke-width:0.999997;stroke-linecap:round;stroke-linejoin:round;enable-background:new"
     id="circle4213"
     cx="26"
     cy="5.5"
     r="2" />
  <rect
     style="opacity:1;fill:#bcc5ca;fill-opacity:1;stroke-width:0.999988;stroke-linecap:round;stroke-linejoin:round"
     id="rect4215"
     width="2"
     height="6"
     x="25"
     y="0"
     ry="0.375"
     rx="0.33333334" />
  <rect
     style="opacity:1;fill:#bcc5ca;fill-opacity:1;stroke-width:1;stroke-linecap:round;stroke-linejoin:round"
     id="rect949"
     width="4"
     height="4"
     x="14"
     y="12" />
  <rect
     style="opacity:1;fill:#bcc5ca;fill-opacity:1;stroke-width:1;stroke-linecap:round;stroke-linejoin:round"
     id="rect951"
     width="4"
     height="4"
     x="19"
     y="12" />
  <rect
     style="opacity:1;fill:#d2d8dc;fill-opacity:1;stroke-width:1;stroke-linecap:round;stroke-linejoin:round"
     id="rect953"
     width="4"
     height="4"
     x="24"
     y="12" />
  <rect
     style="opacity:1;fill:#d2d8dc;fill-opacity:1;stroke-width:1;stroke-linecap:round;stroke-linejoin:round"
     id="rect955"
     width="4"
     height="4"
     x="4"
     y="17" />
  <rect
     style="opacity:1;fill:#bcc5ca;fill-opacity:1;stroke-width:1;stroke-linecap:round;stroke-linejoin:round"
     id="rect957"
     width="4"
     height="4"
     x="9"
     y="17" />
  <rect
     style="opacity:1;fill:#bcc5ca;fill-opacity:1;stroke-width:1;stroke-linecap:round;stroke-linejoin:round"
     id="rect959"
     width="4"
     height="4"
     x="14"
     y="17" />
  <rect
     style="opacity:1;fill:#bcc5ca;fill-opacity:1;stroke-width:1;stroke-linecap:round;stroke-linejoin:round"
     id="rect961"
     width="4"
     height="4"
     x="19"
     y="17" />
  <rect
     style="opacity:1;fill:#d2d8dc;fill-opacity:1;stroke-width:1;stroke-linecap:round;stroke-linejoin:round"
     id="rect963"
     width="4"
     height="4"
     x="24"
     y="17" />
  <rect
     style="opacity:1;fill:#d2d8dc;fill-opacity:1;stroke-width:1;stroke-linecap:round;stroke-linejoin:round"
     id="rect965"
     width="4"
     height="4"
     x="4"
     y="22" />
  <rect
     style="opacity:1;fill:#bcc5ca;fill-opacity:1;stroke-width:1;stroke-linecap:round;stroke-linejoin:round"
     id="rect967"
     width="4"
     height="4"
     x="9"
     y="22" />
  <rect
     style="opacity:1;fill:#bcc5ca;fill-opacity:1;stroke-width:1;stroke-linecap:round;stroke-linejoin:round"
     id="rect969"
     width="4"
     height="4"
     x="14"
     y="22" />
  <rect
     style="opacity:1;fill:#bcc5ca;fill-opacity:1;stroke-width:1;stroke-linecap:round;stroke-linejoin:round"
     id="rect971"
     width="4"
     height="4"
     x="19"
     y="22" />
  <rect
     style="opacity:1;fill:#d2d8dc;fill-opacity:1;stroke-width:1;stroke-linecap:round;stroke-linejoin:round"
     id="rect973"
     width="4"
     height="4"
     x="24"
     y="22" />
</svg>
