<?xml version="1.0" encoding="UTF-8" standalone="no"?>
<svg
   width="48"
   height="48"
   id="svg11300"
   version="1.0"
   style="display:inline;enable-background:new"
   viewBox="0 0 48 48"
   sodipodi:docname="org.xfce.orage.svg"
   inkscape:version="1.1.1 (3bf5ae0d25, 2021-09-20)"
   inkscape:export-filename="org.xfce.orage.png"
   inkscape:export-xdpi="96"
   inkscape:export-ydpi="96"
   xmlns:inkscape="http://www.inkscape.org/namespaces/inkscape"
   xmlns:sodipodi="http://sodipodi.sourceforge.net/DTD/sodipodi-0.dtd"
   xmlns="http://www.w3.org/2000/svg"
   xmlns:svg="http://www.w3.org/2000/svg"
   xmlns:rdf="http://www.w3.org/1999/02/22-rdf-syntax-ns#"
   xmlns:cc="http://creativecommons.org/ns#"
   xmlns:dc="http://purl.org/dc/elements/1.1/">
  <sodipodi:namedview
     pagecolor="#ffffff"
     bordercolor="#666666"
     borderopacity="1"
     objecttolerance="10"
     gridtolerance="10"
     guidetolerance="10"
     inkscape:pageopacity="0"
     inkscape:pageshadow="2"
     inkscape:window-width="1385"
     inkscape:window-height="813"
     id="namedview44"
     showgrid="false"
     inkscape:zoom="7.6088268"
     inkscape:cx="18.991101"
     inkscape:cy="38.705047"
     inkscape:window-x="248"
     inkscape:window-y="217"
     inkscape:window-maximized="0"
     inkscape:current-layer="svg11300"
     inkscape:lockguides="false"
     showguides="true"
     inkscape:guide-bbox="true"
     inkscape:pagecheckerboard="0"
     inkscape:snap-center="true"
     inkscape:snap-object-midpoints="true"
     width="64px">
    <inkscape:grid
       type="xygrid"
       id="grid4761"
       empspacing="4" />
  </sodipodi:namedview>
  <title
     id="title4162">Adwaita Icon Template</title>
  <defs
     id="defs3">
    <linearGradient
       id="linearGradient1020"
       inkscape:swatch="gradient">
      <stop
         style="stop-color:#ffffff;stop-opacity:1;"
         offset="0"
         id="stop1016" />
      <stop
         style="stop-color:#ffffff;stop-opacity:0.09411765"
         offset="1"
         id="stop1018" />
    </linearGradient>
  </defs>
  <metadata
     id="metadata4">
    <rdf:RDF>
      <cc:Work
         rdf:about="">
        <dc:title>Adwaita Icon Template</dc:title>
      </cc:Work>
    </rdf:RDF>
  </metadata>
  <rect
     style="display:inline;opacity:1;fill:#e6461d;fill-opacity:1;stroke:none;stroke-width:0.25;stroke-linecap:butt;stroke-linejoin:miter;stroke-miterlimit:4;stroke-dasharray:none;stroke-dashoffset:0;stroke-opacity:1;marker:none;marker-start:none;marker-mid:none;marker-end:none;paint-order:normal;enable-background:new"
     id="rect905"
     width="40"
     height="38"
     x="4"
     y="7"
     rx="4"
     ry="4" />
  <rect
     style="display:inline;opacity:1;fill:#d2d8dc;fill-opacity:1;stroke:none;stroke-width:0.25;stroke-linecap:butt;stroke-linejoin:miter;stroke-miterlimit:4;stroke-dasharray:none;stroke-dashoffset:0;stroke-opacity:1;marker:none;marker-start:none;marker-mid:none;marker-end:none;paint-order:normal;enable-background:new"
     id="rect879"
     width="40"
     height="38"
     x="4"
     y="6"
     rx="4"
     ry="4" />
  <rect
     ry="3"
     rx="3"
     y="9"
     x="5"
     height="34"
     width="38"
     id="rect1711"
     style="display:inline;opacity:1;fill:#f1f3f5;fill-opacity:1;stroke:none;stroke-width:0.25;stroke-linecap:butt;stroke-linejoin:miter;stroke-miterlimit:4;stroke-dasharray:none;stroke-dashoffset:0;stroke-opacity:1;marker:none;marker-start:none;marker-mid:none;marker-end:none;paint-order:normal;enable-background:new" />
  <rect
     style="opacity:1;fill:#e6461d;fill-opacity:1;stroke-width:0.999997;stroke-linecap:round;stroke-linejoin:round"
     id="rect874"
     width="40"
     height="10"
     x="4"
     y="5"
     rx="4"
     ry="4" />
  <rect
     style="opacity:1;fill:#e6461d;fill-opacity:1;stroke-width:0.999997;stroke-linecap:round;stroke-linejoin:round"
     id="rect1106"
     width="40"
     height="5"
     x="4"
     y="10" />
  <rect
     style="opacity:1;fill:#c02700;fill-opacity:1;stroke-width:0.999998;stroke-linecap:round;stroke-linejoin:round"
     id="rect15096"
     width="40"
     height="1"
     x="4"
     y="15.000001" />
  <circle
     style="display:inline;fill:#f1f3f5;fill-opacity:1;stroke-width:0.999992;stroke-linecap:round;stroke-linejoin:round;enable-background:new"
     id="path2530"
     cx="10"
     cy="9.5"
     r="2.5" />
  <rect
     style="opacity:1;fill:#d2d8dc;fill-opacity:1;stroke-width:0.999996;stroke-linecap:round;stroke-linejoin:round"
     id="rect25256"
     width="6"
     height="6"
     x="7"
     y="19" />
  <g
     id="g895"
     style="display:inline;fill:#f1f3f5;fill-opacity:1;stroke:none;stroke-width:0.839763;enable-background:new"
     transform="matrix(0.22101845,0,0,0.22101845,8.618487,-60.611416)" />
  <g
     id="g901"
     transform="matrix(0.08790763,0,0,0.08790763,1.4634023,-23.959419)"
     style="display:inline;fill:#f1f3f5;fill-opacity:1;stroke:none;stroke-width:2.11134;enable-background:new">
    <path
       id="path899"
       style="color:#000000;fill:#c02700;fill-opacity:1;fill-rule:evenodd;stroke-width:1.77304;-inkscape-stroke:none"
       d="m 152.89825,352.71183 -0.10524,0.0109 -0.10524,0.0528 c -0.12953,0.0709 -0.27228,0.21523 -0.34725,0.38938 -0.075,0.17415 -0.0684,0.35346 -0.0421,0.48405 0.0528,0.26124 0.15591,0.39128 0.2736,0.53669 0.23541,0.29083 0.56904,0.58462 1.03126,0.93655 0.92441,0.70386 2.35795,1.62008 4.30395,2.72548 3.89199,2.21082 9.80919,5.14267 17.51047,8.31327 7.59603,3.12706 16.71886,8.69303 23.69807,13.78529 3.4896,2.54612 6.45233,4.97739 8.40797,6.90316 0.97782,0.96289 1.70118,1.80632 2.10463,2.43085 0.2017,0.31228 0.31811,0.5733 0.35779,0.72609 0.0398,0.1528 0.007,0.14456 0.0317,0.10524 l 0.0208,-0.0208 c -5.06204,7.12978 -8.0568,15.7792 -6.0087,30.29606 v 0.0109 c 0.0394,0.27238 -0.23423,0.91341 -0.87342,1.69423 -0.63922,0.78082 -1.56057,1.67631 -2.49398,2.63078 -0.9334,0.95447 -1.8799,1.96082 -2.57817,3.02013 -0.69826,1.05933 -1.16823,2.21438 -0.98917,3.4095 v 0.0109 c 0.0878,0.53339 0.4496,1.00761 0.90499,1.21016 0.45538,0.20256 0.93376,0.20351 1.43114,0.13677 0.99477,-0.13347 2.11985,-0.57584 3.26217,-1.0523 1.14231,-0.47645 2.28398,-0.99481 3.15694,-1.31539 0.39775,-0.14605 0.71834,-0.23346 0.94708,-0.2736 -0.002,0.15139 0.019,0.22071 -0.0208,0.46303 -0.0729,0.4406 -0.21315,0.99661 -0.38938,1.62057 -0.35237,1.2479 -0.85837,2.75952 -1.32592,4.24081 -0.46756,1.4813 -0.89596,2.93078 -1.08389,4.11454 -0.094,0.59188 -0.13044,1.11698 -0.0528,1.59952 0.0778,0.48253 0.34341,1.01581 0.87342,1.21016 l 0.0208,0.0109 0.0208,0.0109 c 0.3673,0.10918 0.60457,0.009 0.84185,-0.0841 0.23726,-0.0932 0.47741,-0.23387 0.74714,-0.39988 0.53941,-0.33196 1.18414,-0.80313 1.91521,-1.37853 1.46214,-1.15081 3.25955,-2.70107 5.03006,-4.26186 1.77048,-1.56079 3.50982,-3.12826 4.85115,-4.28291 0.67066,-0.57733 1.24221,-1.05585 1.65213,-1.36801 0.19645,-0.14962 0.35327,-0.25527 0.45247,-0.31567 10.80049,3.21859 23.10231,3.61542 32.81109,3.17798 4.88864,-0.22025 9.11915,-0.65324 12.16473,-1.0418 1.52279,-0.19428 2.74328,-0.37331 3.60943,-0.51561 0.43309,-0.0712 0.78405,-0.13184 1.03127,-0.17885 0.098,-0.019 0.16238,-0.0385 0.23152,-0.0528 v 0.0109 c 0.13958,0.0612 0.35748,0.14949 0.63139,0.2736 0.54784,0.24821 1.33841,0.60905 2.29403,1.04178 1.91129,0.86546 4.4813,2.02421 7.11364,3.14641 2.63234,1.12224 5.31884,2.21171 7.48194,2.95701 1.08154,0.37264 2.03281,0.65852 2.79915,0.8208 0.38318,0.0811 0.72378,0.12768 1.03126,0.13677 0.30749,0.009 0.59491,0.0104 0.91551,-0.19994 l 0.0737,-0.0421 0.0528,-0.0632 c 1.26582,-1.37074 1.32,-3.06222 0.71558,-4.5565 -0.60442,-1.49429 -1.772,-2.90231 -2.97805,-4.2303 -1.20602,-1.32798 -2.45907,-2.57661 -3.24112,-3.59891 -0.39101,-0.51114 -0.66103,-0.9656 -0.75766,-1.28381 -0.0853,-0.28088 -0.0458,-0.38445 0.0421,-0.51562 0.0773,-0.009 0.19143,-0.0163 0.36829,0 0.42033,0.0385 1.04888,0.16152 1.78894,0.3578 1.48011,0.39254 3.40957,1.04703 5.34575,1.6837 1.93617,0.63668 3.87309,1.26011 5.40888,1.62056 0.7679,0.18021 1.43499,0.29862 1.99939,0.30518 0.2822,0.003 0.53615,-0.0122 0.79976,-0.10524 0.26364,-0.0928 0.56632,-0.30622 0.69452,-0.6314 l 0.0109,-0.0208 v -0.0208 c 0.36214,-1.09292 -0.0385,-2.25933 -0.68399,-3.43054 -0.64571,-1.17121 -1.58504,-2.37649 -2.5887,-3.54629 -1.00365,-1.16982 -2.07515,-2.29447 -2.95699,-3.24113 -0.87876,-0.94334 -1.58376,-1.75765 -1.79946,-2.11514 -0.4462,-0.79208 -0.72508,-1.85062 -0.59981,-2.87282 0.12551,-1.02433 0.61584,-2.0128 1.78892,-2.83072 0.23093,-0.16093 0.95709,-0.54059 1.93626,-1.01021 0.97918,-0.46961 2.24236,-1.061 3.68309,-1.73631 2.88146,-1.35062 6.47209,-3.06407 9.95487,-4.97744 3.48279,-1.91339 6.85022,-4.01357 9.32349,-6.1876 2.47191,-2.17285 4.15418,-4.46492 3.81989,-6.84003 -0.52041,-3.86081 -3.07204,-6.80004 -6.47172,-9.00779 -3.39966,-2.20774 -7.67195,-3.74182 -11.89113,-4.85116 -4.21916,-1.10933 -8.38356,-1.78616 -11.51229,-2.27299 -1.56436,-0.24342 -2.87473,-0.44341 -3.78832,-0.61034 -0.45678,-0.0835 -0.80995,-0.16687 -1.03126,-0.23152 h -0.0109 c -0.002,-0.16148 -0.002,-0.36318 0,-0.63139 0.004,-0.59602 0.0131,-1.41402 0,-2.37822 -0.0253,-1.92842 -0.13266,-4.42037 -0.53668,-6.79794 -0.40404,-2.37757 -1.07639,-4.6558 -2.38876,-6.19812 -1.31094,-1.54064 -3.39418,-2.1879 -5.92451,-1.18911 -1.67213,0.62549 -2.61279,2.07232 -3.00961,3.7357 -0.39744,1.66576 -0.32088,3.59446 -0.0632,5.48255 0.25777,1.8881 0.70655,3.73341 1.11545,5.21947 0.40888,1.48605 0.78433,2.66579 0.85237,2.96752 0.0425,0.18799 0.0403,0.13112 -0.0317,0.18944 -0.072,0.0583 -0.30513,0.15302 -0.59982,0.1789 -0.29473,0.0258 -0.63603,-0.007 -0.90499,-0.0737 -0.26898,-0.0668 -0.45791,-0.21346 -0.42096,-0.16835 -0.0566,-0.0691 -0.27427,-0.43585 -0.5051,-0.92604 -0.23084,-0.49019 -0.49639,-1.11648 -0.81028,-1.83102 -0.62779,-1.42908 -1.40485,-3.19153 -2.30457,-4.84064 -0.89971,-1.64911 -1.91355,-3.19299 -3.09379,-4.23029 -0.59014,-0.51863 -1.23654,-0.9096 -1.94679,-1.08388 -0.71024,-0.17424 -1.48453,-0.10995 -2.20985,0.25251 l -0.0109,0.0109 -0.0109,0.0109 c -1.84272,1.01599 -2.83721,2.63389 -3.24112,4.37762 -0.40395,1.74372 -0.26219,3.61338 0.0317,5.35626 0.29373,1.7429 0.74789,3.3621 1.0418,4.53547 0.14691,0.58668 0.24939,1.07051 0.27359,1.34695 0.009,0.0917 0.002,0.10886 0,0.13683 -1.31513,0.82149 -1.98182,2.11558 -2.49397,3.45159 -0.53658,1.39967 -0.97864,2.86531 -1.89417,4.13559 h -0.0108 c -0.27709,0.39707 -0.86251,0.76155 -1.77841,0.99968 -0.91591,0.23813 -2.12529,0.35468 -3.53578,0.3578 -2.82097,0.006 -6.4291,-0.43408 -10.18637,-1.03127 -7.51455,-1.19432 -15.58868,-3.04412 -19.70981,-3.29373 -3.10013,-0.18302 -6.03658,0.97922 -8.26064,2.07306 -1.11204,0.54691 -2.05095,1.08616 -2.71497,1.43114 -0.30825,0.16012 -0.54586,0.26143 -0.69452,0.31568 -7.18922,-7.1638 -21.73014,-19.38274 -37.86219,-23.50866 -4.42291,-1.20028 -10.006,-3.56433 -14.53244,-5.61935 -2.26321,-1.02751 -4.26096,-1.98348 -5.73509,-2.67287 -0.73706,-0.34473 -1.34133,-0.6154 -1.78894,-0.81028 -0.22382,-0.0974 -0.40458,-0.17555 -0.55772,-0.23152 -0.0766,-0.0281 -0.14578,-0.054 -0.22102,-0.0737 -0.0752,-0.0199 -0.12108,-0.0625 -0.3683,-0.0208 z"
       sodipodi:nodetypes="cccscssscssscccccsssccsssscccsscccccssssscssscccsssssccccssssccsssccccccsscsssssscssssccccsscscscscccssssscccscsccsccscccssccssccccc" />
  </g>
  <g
     id="g7021"
     style="display:inline;fill:#c02700;fill-opacity:1;stroke:none;stroke-width:1.55885;enable-background:new"
     transform="matrix(0.11906448,0,0,0.11906448,-7.4102467,-35.015363)">
    <path
       id="path7019"
       style="color:#000000;fill:#c02700;fill-opacity:1;fill-rule:evenodd;stroke-width:0.20672pt;-inkscape-stroke:none"
       d="m 79.529297,18.498047 c -0.02523,-0.001 -0.04972,0.0041 -0.06836,0.01172 -0.03728,0.01516 -0.06734,0.03721 -0.101563,0.06641 -0.06844,0.05838 -0.144957,0.144781 -0.230469,0.251953 -0.171024,0.214346 -0.374789,0.513022 -0.560547,0.826172 -0.185757,0.313152 -0.354127,0.638724 -0.457031,0.908203 -0.05145,0.134737 -0.08629,0.255804 -0.09766,0.359375 -0.01134,0.103421 -0.0024,0.206252 0.08008,0.267578 0.04552,0.03372 0.108698,0.02421 0.144531,0.0059 0.03594,-0.01841 0.06476,-0.04419 0.0957,-0.07617 0.06188,-0.06396 0.12968,-0.155778 0.205078,-0.269532 0.150797,-0.227512 0.327588,-0.541624 0.496094,-0.863281 0.168509,-0.321657 0.327242,-0.6507 0.439453,-0.90625 0.0561,-0.127775 0.100402,-0.235186 0.128907,-0.318359 0.01426,-0.04159 0.02522,-0.07641 0.03125,-0.107422 0.003,-0.01552 0.0062,-0.03103 0.0059,-0.04883 -4.42e-4,-0.01779 5.04e-4,-0.04471 -0.03125,-0.07617 l -0.0039,-0.002 -0.002,-0.0039 c -0.02205,-0.01824 -0.04899,-0.02439 -0.07422,-0.02539 z"
       transform="matrix(4.5245092,0,0,4.5245092,-38.994423,274.23691)" />
  </g>
  <g
     id="g7025"
     transform="matrix(0.11906448,0,0,0.11906448,-8.3665844,-35.199275)"
     style="display:inline;fill:#c02700;fill-opacity:1;stroke:none;stroke-width:1.55885;enable-background:new">
    <path
       id="path7023"
       style="color:#000000;fill:#c02700;fill-opacity:1;fill-rule:evenodd;stroke-width:0.20672pt;-inkscape-stroke:none"
       d="m 77.755859,18.160156 c -0.01094,0.0012 -0.02133,0.0043 -0.0293,0.0078 -0.03186,0.01375 -0.04171,0.028 -0.05078,0.04102 -0.01815,0.02604 -0.02833,0.05219 -0.04102,0.08594 -0.02537,0.06749 -0.05238,0.163529 -0.08203,0.28125 -0.05931,0.235446 -0.125504,0.558247 -0.18164,0.888672 -0.05614,0.330425 -0.102419,0.667417 -0.119141,0.933594 -0.0084,0.133088 -0.0095,0.248364 0,0.339843 0.0047,0.04574 0.01206,0.08448 0.02539,0.121094 0.01258,0.03451 0.03456,0.07038 0.07617,0.09375 0.01949,0.01202 0.04293,0.02341 0.06836,0.02148 0.02906,-0.0022 0.0519,-0.01627 0.06836,-0.0293 0.03292,-0.02607 0.05096,-0.05517 0.06836,-0.08984 0.0348,-0.06934 0.06324,-0.162049 0.09375,-0.279297 0.06101,-0.234496 0.119869,-0.558611 0.166015,-0.890625 0.04615,-0.332014 0.08124,-0.672051 0.0918,-0.941406 0.0053,-0.134676 0.0044,-0.249988 -0.0039,-0.341797 -0.0042,-0.0459 -0.01143,-0.0857 -0.02148,-0.121094 -0.0093,-0.03285 -0.02189,-0.06484 -0.05664,-0.09375 -0.01014,-0.0095 -0.02119,-0.02071 -0.03906,-0.02539 -0.0113,-0.003 -0.02226,-0.0031 -0.0332,-0.002 z"
       transform="matrix(4.5245092,0,0,4.5245092,-30.962325,275.78153)" />
  </g>
  <path
     id="path7721"
     style="color:#000000;display:inline;fill:#f1f3f5;fill-opacity:1;fill-rule:evenodd;stroke:none;stroke-width:0.185209pt;-inkscape-stroke:none;enable-background:new"
     d="m 14.904325,6.2511921 -0.0092,9.544e-4 -0.0092,0.00461 c -0.01138,0.0062 -0.02394,0.018925 -0.03054,0.03423 -0.0066,0.015305 -0.006,0.031071 -0.0036,0.042551 0.0046,0.022966 0.0137,0.034396 0.02406,0.047179 0.02069,0.025567 0.05002,0.051395 0.09065,0.08233 0.08127,0.061872 0.207282,0.1424175 0.378351,0.2395915 0.342135,0.1943471 0.862302,0.4520796 1.539304,0.7307991 0.667748,0.2748923 1.469715,0.7641836 2.08324,1.2118323 0.306763,0.2238236 0.567209,0.437551 0.739124,0.6068406 0.08595,0.084645 0.149547,0.1587893 0.185014,0.21369 0.01773,0.027451 0.02796,0.050393 0.03145,0.063829 0.0035,0.013435 5.97e-4,0.012712 0.0028,0.00925 l 0.0018,-0.00183 c -0.444992,0.626761 -0.708253,1.38711 -0.52821,2.663253 v 9.55e-4 c 0.0034,0.02394 -0.0206,0.0803 -0.07678,0.148935 -0.05619,0.06865 -0.137186,0.147361 -0.219239,0.231267 -0.08205,0.08391 -0.165258,0.172371 -0.226641,0.265493 -0.06138,0.09312 -0.102691,0.19466 -0.08695,0.29972 v 9.55e-4 c 0.0077,0.04688 0.03952,0.08857 0.07956,0.106382 0.04003,0.01781 0.08208,0.01789 0.125809,0.01203 0.08745,-0.01173 0.18635,-0.05062 0.286768,-0.09251 0.100421,-0.04189 0.20078,-0.08745 0.277519,-0.115633 0.03496,-0.01284 0.06315,-0.02052 0.08326,-0.02404 -1.47e-4,0.01331 0.0017,0.0194 -0.0018,0.04071 -0.0065,0.03874 -0.01874,0.08761 -0.03423,0.142461 -0.03097,0.109701 -0.07545,0.242583 -0.116558,0.3728 -0.0411,0.130218 -0.07876,0.257637 -0.09528,0.361699 -0.0083,0.05203 -0.01147,0.09819 -0.0047,0.14061 0.0069,0.04242 0.03018,0.08929 0.07678,0.106382 l 0.0018,9.55e-4 0.0018,9.54e-4 c 0.03229,0.0095 0.05315,7.56e-4 0.074,-0.0074 0.02086,-0.0082 0.04197,-0.02057 0.06568,-0.03515 0.04742,-0.02918 0.104091,-0.0706 0.168362,-0.121183 0.128533,-0.101163 0.286539,-0.237445 0.44218,-0.37465 0.155638,-0.137205 0.308541,-0.274997 0.426454,-0.3765 0.05895,-0.05075 0.1092,-0.09282 0.145234,-0.120258 0.01727,-0.01315 0.03106,-0.02244 0.03977,-0.02775 0.949445,0.28294 2.030868,0.317823 2.884346,0.279369 0.429748,-0.01936 0.801641,-0.05742 1.069371,-0.09159 0.133865,-0.01708 0.241155,-0.03282 0.317296,-0.04532 0.03808,-0.0063 0.06893,-0.01159 0.09065,-0.01572 0.0086,-0.0017 0.01428,-0.0033 0.02035,-0.0047 0,0 0,9.55e-4 0,9.55e-4 0.01227,0.0054 0.03143,0.01314 0.0555,0.02404 0.04816,0.02182 0.117657,0.05354 0.201664,0.09158 0.168016,0.07608 0.393939,0.177943 0.625342,0.276594 0.231403,0.09865 0.467568,0.194425 0.65772,0.259943 0.09507,0.03275 0.1787,0.05789 0.246066,0.07216 0.03368,0.0071 0.06362,0.01122 0.09065,0.01203 0.02704,7.95e-4 0.0523,8.75e-4 0.08048,-0.01758 l 0.0065,-0.0037 0.0046,-0.0056 c 0.111276,-0.120499 0.116038,-0.269192 0.06291,-0.40055 -0.05313,-0.13136 -0.155771,-0.255135 -0.261793,-0.371877 -0.106021,-0.116739 -0.21617,-0.226503 -0.28492,-0.316371 -0.03437,-0.04494 -0.05811,-0.08488 -0.06661,-0.112857 -0.0074,-0.02469 -0.004,-0.03379 0.0037,-0.04533 0.0068,-7.55e-4 0.01683,-0.0014 0.03238,0 0.03695,0.0034 0.0922,0.0142 0.157261,0.03145 0.130113,0.03451 0.299727,0.09204 0.469932,0.148009 0.170204,0.05597 0.340474,0.110774 0.475482,0.142461 0.0675,0.01584 0.126147,0.02625 0.175762,0.02682 0.02481,2.95e-4 0.04713,-10e-4 0.0703,-0.0092 0.02317,-0.0082 0.04979,-0.02692 0.06105,-0.0555 l 9.55e-4,-0.0018 v -0.0018 c 0.03183,-0.09607 -0.0034,-0.198613 -0.06013,-0.30157 -0.05677,-0.102956 -0.139337,-0.208912 -0.227566,-0.311747 -0.08822,-0.102839 -0.182422,-0.201701 -0.259942,-0.284919 -0.07725,-0.08293 -0.139225,-0.154511 -0.158187,-0.185938 -0.03922,-0.06963 -0.06374,-0.162684 -0.05273,-0.252542 0.01103,-0.09005 0.05414,-0.17694 0.15726,-0.248841 0.0203,-0.01414 0.08414,-0.04753 0.170211,-0.08881 0.08608,-0.04129 0.197122,-0.09327 0.323772,-0.152636 0.253302,-0.118729 0.568946,-0.269355 0.87511,-0.437555 0.306164,-0.1682 0.602186,-0.352823 0.819606,-0.543936 0.2173,-0.19101 0.365184,-0.3924997 0.335798,-0.6012904 -0.04574,-0.33936 -0.27005,-0.5977407 -0.568908,-0.7918198 -0.298857,-0.1940767 -0.674423,-0.3289341 -1.04532,-0.4264533 -0.370898,-0.097519 -0.736981,-0.1570169 -1.01202,-0.1998136 -0.137519,-0.021398 -0.252711,-0.038978 -0.333022,-0.053655 -0.04016,-0.00732 -0.0712,-0.014669 -0.09065,-0.020348 0,0 -9.54e-4,0 -9.54e-4,0 -1.48e-4,-0.0142 -1.48e-4,-0.03193 0,-0.055501 3.69e-4,-0.052399 0.0011,-0.124303 0,-0.2090643 -0.0022,-0.1695227 -0.01167,-0.3885845 -0.04718,-0.5975908 -0.03552,-0.2090063 -0.09462,-0.4092805 -0.209991,-0.5448617 -0.115241,-0.1354349 -0.298375,-0.192333 -0.520809,-0.1045322 -0.146993,0.054983 -0.229685,0.1821725 -0.264568,0.3283971 -0.03494,0.1464324 -0.02821,0.3159805 -0.0056,0.4819577 0.02266,0.165978 0.06211,0.328195 0.09806,0.4588317 0.03593,0.1306349 0.06895,0.2343429 0.07492,0.2608673 0.0037,0.01653 0.0035,0.011527 -0.0028,0.016657 -0.0064,0.00509 -0.02682,0.013452 -0.05273,0.015726 -0.02591,0.00231 -0.05592,-5.966e-4 -0.07956,-0.00644 -0.02364,-0.00589 -0.04025,-0.018766 -0.03701,-0.014796 -0.005,-0.00605 -0.02411,-0.038319 -0.04441,-0.081405 C 25.8395,8.0067287 25.81617,7.9516727 25.78857,7.8888588 25.733301,7.7631685 25.664995,7.6082357 25.585904,7.4632662 25.506809,7.3182976 25.417688,7.1825787 25.313935,7.0913915 c -0.05188,-0.045589 -0.108701,-0.079961 -0.171137,-0.095282 -0.06244,-0.015313 -0.130502,-0.00966 -0.194263,0.022201 l -9.55e-4,9.545e-4 -9.54e-4,9.546e-4 c -0.161989,0.089313 -0.249412,0.2315397 -0.284919,0.3848267 -0.03551,0.1532862 -0.02305,0.3176431 0.0028,0.470856 0.02583,0.1532138 0.06575,0.2955542 0.09159,0.3987022 0.01292,0.051571 0.02192,0.094106 0.02406,0.1184077 7.55e-4,0.00806 1.47e-4,0.00957 0,0.012028 -0.115611,0.072213 -0.174218,0.1859763 -0.21924,0.3034215 -0.04717,0.1230421 -0.08603,0.2518824 -0.166512,0.36355 h -9.54e-4 c -0.02435,0.034906 -0.07581,0.066947 -0.156335,0.087879 -0.08051,0.020937 -0.186829,0.031183 -0.310822,0.031453 -0.247985,5.171e-4 -0.565168,-0.038158 -0.89546,-0.090657 C 22.37027,8.9956984 21.660492,8.8330869 21.298214,8.8111444 21.025689,8.7950604 20.767552,8.8972244 20.57204,8.993382 20.47428,9.041461 20.391746,9.088863 20.333374,9.11919 20.306274,9.133262 20.285394,9.142171 20.272324,9.146944 19.640282,8.5171932 18.362025,7.4430547 16.943894,7.080355 16.555087,6.9748413 16.064291,6.7670236 15.666382,6.5863713 15.467428,6.4960448 15.291812,6.4120082 15.162223,6.3514055 c -0.06479,-0.030308 -0.117912,-0.0541 -0.157261,-0.071227 -0.01967,-0.00857 -0.03556,-0.015432 -0.04902,-0.020356 -0.0068,-0.00246 -0.01281,-0.00477 -0.01943,-0.00645 -0.0066,-0.00175 -0.01064,-0.00548 -0.03238,-0.00182 z" />
  <g
     id="path13-0"
     style="display:inline;fill:#f1f3f5;fill-opacity:1;stroke:none;stroke-width:1.52919;enable-background:new"
     transform="matrix(0.12137324,0,0,0.12137324,-8.2185082,-36.212958)">
    <path
       id="path7709"
       style="color:#000000;fill:#f1f3f5;fill-opacity:1;fill-rule:evenodd;stroke-width:0.202788pt;-inkscape-stroke:none"
       d="m 79.529297,18.498047 c -0.02523,-0.001 -0.04972,0.0041 -0.06836,0.01172 -0.03728,0.01516 -0.06734,0.03721 -0.101563,0.06641 -0.06844,0.05838 -0.144957,0.144781 -0.230469,0.251953 -0.171024,0.214346 -0.374789,0.513022 -0.560547,0.826172 -0.185757,0.313152 -0.354127,0.638724 -0.457031,0.908203 -0.05145,0.134737 -0.08629,0.255804 -0.09766,0.359375 -0.01134,0.103421 -0.0024,0.206252 0.08008,0.267578 0.04552,0.03372 0.108698,0.02421 0.144531,0.0059 0.03594,-0.01841 0.06476,-0.04419 0.0957,-0.07617 0.06188,-0.06396 0.12968,-0.155778 0.205078,-0.269532 0.150797,-0.227512 0.327588,-0.541624 0.496094,-0.863281 0.168509,-0.321657 0.327242,-0.6507 0.439453,-0.90625 0.0561,-0.127775 0.100402,-0.235186 0.128907,-0.318359 0.01426,-0.04159 0.02522,-0.07641 0.03125,-0.107422 0.003,-0.01552 0.0062,-0.03103 0.0059,-0.04883 -4.42e-4,-0.01779 5.04e-4,-0.04471 -0.03125,-0.07617 l -0.0039,-0.002 -0.002,-0.0039 c -0.02205,-0.01824 -0.04899,-0.02439 -0.07422,-0.02539 z"
       transform="matrix(4.5245092,0,0,4.5245092,-38.994423,274.23691)" />
  </g>
  <g
     id="path18-2"
     transform="matrix(0.12137324,0,0,0.12137324,-9.19339,-36.400434)"
     style="display:inline;fill:#f1f3f5;fill-opacity:1;stroke:none;stroke-width:1.52919;enable-background:new">
    <path
       id="path7715"
       style="color:#000000;fill:#f1f3f5;fill-opacity:1;fill-rule:evenodd;stroke-width:0.202788pt;-inkscape-stroke:none"
       d="m 77.755859,18.160156 c -0.01094,0.0012 -0.02133,0.0043 -0.0293,0.0078 -0.03186,0.01375 -0.04171,0.028 -0.05078,0.04102 -0.01815,0.02604 -0.02833,0.05219 -0.04102,0.08594 -0.02537,0.06749 -0.05238,0.163529 -0.08203,0.28125 -0.05931,0.235446 -0.125504,0.558247 -0.18164,0.888672 -0.05614,0.330425 -0.102419,0.667417 -0.119141,0.933594 -0.0084,0.133088 -0.0095,0.248364 0,0.339843 0.0047,0.04574 0.01206,0.08448 0.02539,0.121094 0.01258,0.03451 0.03456,0.07038 0.07617,0.09375 0.01949,0.01202 0.04293,0.02341 0.06836,0.02148 0.02906,-0.0022 0.0519,-0.01627 0.06836,-0.0293 0.03292,-0.02607 0.05096,-0.05517 0.06836,-0.08984 0.0348,-0.06934 0.06324,-0.162049 0.09375,-0.279297 0.06101,-0.234496 0.119869,-0.558611 0.166015,-0.890625 0.04615,-0.332014 0.08124,-0.672051 0.0918,-0.941406 0.0053,-0.134676 0.0044,-0.249988 -0.0039,-0.341797 -0.0042,-0.0459 -0.01143,-0.0857 -0.02148,-0.121094 -0.0093,-0.03285 -0.02189,-0.06484 -0.05664,-0.09375 -0.01014,-0.0095 -0.02119,-0.02071 -0.03906,-0.02539 -0.0113,-0.003 -0.02226,-0.0031 -0.0332,-0.002 z"
       transform="matrix(4.5245092,0,0,4.5245092,-30.962325,275.78153)" />
  </g>
  <rect
     style="opacity:1;fill:#bcc5ca;fill-opacity:1;stroke-width:0.999988;stroke-linecap:round;stroke-linejoin:round"
     id="rect888"
     height="8"
     x="9"
     y="3"
     width="2"
     ry="0.5"
     rx="0.5" />
  <rect
     style="fill:#d2d8dc;fill-opacity:1;stroke-width:0.499999;stroke-linecap:round;stroke-linejoin:round"
     id="rect1067"
     width="38"
     height="1"
     x="5"
     y="41" />
  <rect
     style="opacity:1;fill:#bcc5ca;fill-opacity:1;stroke-width:0.999996;stroke-linecap:round;stroke-linejoin:round"
     id="rect3079"
     width="6"
     height="6"
     x="14"
     y="19" />
  <rect
     style="opacity:1;fill:#bcc5ca;fill-opacity:1;stroke-width:0.999996;stroke-linecap:round;stroke-linejoin:round"
     id="rect3015"
     width="6"
     height="6"
     x="21"
     y="19" />
  <rect
     style="opacity:1;fill:#d2d8dc;fill-opacity:1;stroke-width:0.999996;stroke-linecap:round;stroke-linejoin:round"
     id="rect3017"
     width="6"
     height="6"
     x="35"
     y="19" />
  <rect
     style="opacity:1;fill:#bcc5ca;fill-opacity:1;stroke-width:0.999996;stroke-linecap:round;stroke-linejoin:round"
     id="rect3019"
     width="6"
     height="6"
     x="28"
     y="19" />
  <rect
     style="opacity:1;fill:#d2d8dc;fill-opacity:1;stroke-width:0.999996;stroke-linecap:round;stroke-linejoin:round"
     id="rect3075"
     width="6"
     height="6"
     x="7"
     y="26" />
  <rect
     style="opacity:1;fill:#bcc5ca;fill-opacity:1;stroke-width:0.999996;stroke-linecap:round;stroke-linejoin:round"
     id="rect3077"
     width="6"
     height="6"
     x="14"
     y="26" />
  <rect
     style="opacity:1;fill:#bcc5ca;fill-opacity:1;stroke-width:0.999996;stroke-linecap:round;stroke-linejoin:round"
     id="rect3080"
     width="6"
     height="6"
     x="21"
     y="26" />
  <rect
     style="opacity:1;fill:#d2d8dc;fill-opacity:1;stroke-width:0.999996;stroke-linecap:round;stroke-linejoin:round"
     id="rect3082"
     width="6"
     height="6"
     x="35"
     y="26" />
  <rect
     style="opacity:1;fill:#bcc5ca;fill-opacity:1;stroke-width:0.999996;stroke-linecap:round;stroke-linejoin:round"
     id="rect3084"
     width="6"
     height="6"
     x="28"
     y="26" />
  <rect
     style="opacity:1;fill:#d2d8dc;fill-opacity:1;stroke-width:0.999996;stroke-linecap:round;stroke-linejoin:round"
     id="rect3086"
     width="6"
     height="6"
     x="7"
     y="33" />
  <rect
     style="opacity:1;fill:#bcc5ca;fill-opacity:1;stroke-width:0.999996;stroke-linecap:round;stroke-linejoin:round"
     id="rect3088"
     width="6"
     height="6"
     x="14"
     y="33" />
  <rect
     style="opacity:1;fill:#bcc5ca;fill-opacity:1;stroke-width:0.999996;stroke-linecap:round;stroke-linejoin:round"
     id="rect3090"
     width="6"
     height="6"
     x="21"
     y="33" />
  <rect
     style="opacity:1;fill:#d2d8dc;fill-opacity:1;stroke-width:0.999996;stroke-linecap:round;stroke-linejoin:round"
     id="rect3092"
     width="6"
     height="6"
     x="35"
     y="33" />
  <rect
     style="opacity:1;fill:#bcc5ca;fill-opacity:1;stroke-width:0.999996;stroke-linecap:round;stroke-linejoin:round"
     id="rect3094"
     width="6"
     height="6"
     x="28"
     y="33" />
  <circle
     style="display:inline;fill:#f1f3f5;fill-opacity:1;stroke-width:0.999995;stroke-linecap:round;stroke-linejoin:round;enable-background:new"
     id="circle1156"
     cx="38"
     cy="9.5"
     r="2.5" />
  <rect
     style="opacity:1;fill:#bcc5ca;fill-opacity:1;stroke-width:0.999988;stroke-linecap:round;stroke-linejoin:round"
     id="rect4215"
     width="2"
     height="8"
     x="37"
     y="3"
     rx="0.5"
     ry="0.5" />
</svg>
